<svg xmlns="http://www.w3.org/2000/svg" xmlns:xlink="http://www.w3.org/1999/xlink" viewBox="0 0 1920 1080"><defs><style>.cls-1{isolation:isolate;}.cls-2{fill:url(#Dégradé_sans_nom_7);}.cls-10,.cls-11,.cls-12,.cls-13,.cls-14,.cls-15,.cls-16,.cls-17,.cls-18,.cls-19,.cls-20,.cls-21,.cls-22,.cls-23,.cls-24,.cls-25,.cls-26,.cls-27,.cls-28,.cls-29,.cls-3,.cls-30,.cls-31,.cls-32,.cls-33,.cls-34,.cls-4,.cls-41,.cls-5,.cls-55,.cls-6,.cls-7,.cls-8,.cls-9{mix-blend-mode:screen;}.cls-3{fill:url(#_ÂÁ_Ï_ÌÌ_È_ËÂÌÚ_638);}.cls-4{fill:url(#_ÂÁ_Ï_ÌÌ_È_ËÂÌÚ_638-2);}.cls-5{fill:url(#_ÂÁ_Ï_ÌÌ_È_ËÂÌÚ_638-3);}.cls-6{fill:url(#_ÂÁ_Ï_ÌÌ_È_ËÂÌÚ_634);}.cls-7{fill:url(#_ÂÁ_Ï_ÌÌ_È_ËÂÌÚ_634-2);}.cls-8{fill:url(#_ÂÁ_Ï_ÌÌ_È_ËÂÌÚ_638-4);}.cls-9{fill:url(#_ÂÁ_Ï_ÌÌ_È_ËÂÌÚ_27);}.cls-10{fill:url(#_ÂÁ_Ï_ÌÌ_È_ËÂÌÚ_27-2);}.cls-11{fill:url(#_ÂÁ_Ï_ÌÌ_È_ËÂÌÚ_27-3);}.cls-12{fill:url(#_ÂÁ_Ï_ÌÌ_È_ËÂÌÚ_27-4);}.cls-13,.cls-20,.cls-31,.cls-42,.cls-43,.cls-72,.cls-73{opacity:0.2;}.cls-13{fill:url(#_ÂÁ_Ï_ÌÌ_È_ËÂÌÚ_18);}.cls-14,.cls-22,.cls-33,.cls-34,.cls-36,.cls-40,.cls-51,.cls-54{opacity:0.5;}.cls-14{fill:url(#_ÂÁ_Ï_ÌÌ_È_ËÂÌÚ_18-2);}.cls-15,.cls-20,.cls-21,.cls-22,.cls-26,.cls-31,.cls-32,.cls-33,.cls-57,.cls-58,.cls-59,.cls-60,.cls-61,.cls-62,.cls-63,.cls-64,.cls-65,.cls-66,.cls-67,.cls-68,.cls-69,.cls-70,.cls-71,.cls-77,.cls-78,.cls-79,.cls-80,.cls-81,.cls-82,.cls-83,.cls-84{fill-rule:evenodd;}.cls-15{fill:url(#_ÂÁ_Ï_ÌÌ_È_ËÂÌÚ_638-5);}.cls-16{fill:url(#_ÂÁ_Ï_ÌÌ_È_ËÂÌÚ_638-6);}.cls-17{fill:url(#_ÂÁ_Ï_ÌÌ_È_ËÂÌÚ_27-5);}.cls-18{fill:url(#_ÂÁ_Ï_ÌÌ_È_ËÂÌÚ_27-6);}.cls-19{fill:url(#_ÂÁ_Ï_ÌÌ_È_ËÂÌÚ_27-7);}.cls-20{fill:url(#_ÂÁ_Ï_ÌÌ_È_ËÂÌÚ_18-3);}.cls-21,.cls-32{opacity:0.41;}.cls-21{fill:url(#_ÂÁ_Ï_ÌÌ_È_ËÂÌÚ_18-4);}.cls-22{fill:url(#_ÂÁ_Ï_ÌÌ_È_ËÂÌÚ_18-5);}.cls-23{fill:url(#_ÂÁ_Ï_ÌÌ_È_ËÂÌÚ_638-7);}.cls-24{fill:url(#_ÂÁ_Ï_ÌÌ_È_ËÂÌÚ_27-8);}.cls-25{fill:url(#_ÂÁ_Ï_ÌÌ_È_ËÂÌÚ_634-3);}.cls-26{fill:url(#_ÂÁ_Ï_ÌÌ_È_ËÂÌÚ_634-4);}.cls-27{fill:url(#_ÂÁ_Ï_ÌÌ_È_ËÂÌÚ_638-8);}.cls-28{fill:url(#_ÂÁ_Ï_ÌÌ_È_ËÂÌÚ_27-9);}.cls-29{fill:url(#_ÂÁ_Ï_ÌÌ_È_ËÂÌÚ_27-10);}.cls-30{fill:url(#_ÂÁ_Ï_ÌÌ_È_ËÂÌÚ_27-11);}.cls-31{fill:url(#_ÂÁ_Ï_ÌÌ_È_ËÂÌÚ_18-6);}.cls-32{fill:url(#_ÂÁ_Ï_ÌÌ_È_ËÂÌÚ_18-7);}.cls-33{fill:url(#_ÂÁ_Ï_ÌÌ_È_ËÂÌÚ_18-8);}.cls-34{fill:url(#_ÂÁ_Ï_ÌÌ_È_ËÂÌÚ_18-9);}.cls-35{fill:url(#_ÂÁ_Ï_ÌÌ_È_ËÂÌÚ_648);}.cls-36,.cls-40,.cls-42,.cls-43,.cls-51,.cls-54,.cls-72,.cls-73,.cls-74,.cls-75,.cls-76{mix-blend-mode:multiply;}.cls-36{fill:url(#_ÂÁ_Ï_ÌÌ_È_ËÂÌÚ_574);}.cls-37{fill:url(#_ÂÁ_Ï_ÌÌ_È_ËÂÌÚ_589);}.cls-38{fill:#ffdec5;}.cls-39{fill:url(#_ÂÁ_Ï_ÌÌ_È_ËÂÌÚ_543);}.cls-40{fill:url(#_ÂÁ_Ï_ÌÌ_È_ËÂÌÚ_594);}.cls-41{fill:url(#_ÂÁ_Ï_ÌÌ_È_ËÂÌÚ_601);}.cls-42{fill:url(#_ÂÁ_Ï_ÌÌ_È_ËÂÌÚ_602);}.cls-43{fill:url(#_ÂÁ_Ï_ÌÌ_È_ËÂÌÚ_602-2);}.cls-44{fill:url(#_ÂÁ_Ï_ÌÌ_È_ËÂÌÚ_543-2);}.cls-45{fill:url(#_ÂÁ_Ï_ÌÌ_È_ËÂÌÚ_583);}.cls-46{fill:url(#_ÂÁ_Ï_ÌÌ_È_ËÂÌÚ_583-2);}.cls-47{fill:url(#_ÂÁ_Ï_ÌÌ_È_ËÂÌÚ_583-3);}.cls-48{fill:url(#_ÂÁ_Ï_ÌÌ_È_ËÂÌÚ_583-4);}.cls-49{fill:url(#_ÂÁ_Ï_ÌÌ_È_ËÂÌÚ_583-5);}.cls-50{fill:url(#_ÂÁ_Ï_ÌÌ_È_ËÂÌÚ_583-6);}.cls-51{fill:url(#_ÂÁ_Ï_ÌÌ_È_ËÂÌÚ_574-2);}.cls-52{fill:url(#_ÂÁ_Ï_ÌÌ_È_ËÂÌÚ_589-2);}.cls-53{fill:url(#_ÂÁ_Ï_ÌÌ_È_ËÂÌÚ_543-3);}.cls-54{fill:url(#_ÂÁ_Ï_ÌÌ_È_ËÂÌÚ_594-2);}.cls-55{fill:url(#_ÂÁ_Ï_ÌÌ_È_ËÂÌÚ_601-2);}.cls-56{fill:#ffe5cc;}.cls-57{fill:url(#_ÂÁ_Ï_ÌÌ_È_ËÂÌÚ_497);}.cls-58{fill:url(#_ÂÁ_Ï_ÌÌ_È_ËÂÌÚ_497-2);}.cls-59{fill:#dbb1c0;}.cls-60{fill:url(#_ÂÁ_Ï_ÌÌ_È_ËÂÌÚ_497-3);}.cls-61{fill:url(#_ÂÁ_Ï_ÌÌ_È_ËÂÌÚ_497-4);}.cls-62{fill:url(#_ÂÁ_Ï_ÌÌ_È_ËÂÌÚ_497-5);}.cls-63{fill:url(#_ÂÁ_Ï_ÌÌ_È_ËÂÌÚ_497-6);}.cls-64{fill:url(#_ÂÁ_Ï_ÌÌ_È_ËÂÌÚ_497-7);}.cls-65{fill:url(#_ÂÁ_Ï_ÌÌ_È_ËÂÌÚ_497-8);}.cls-66{fill:url(#_ÂÁ_Ï_ÌÌ_È_ËÂÌÚ_497-9);}.cls-67{fill:url(#_ÂÁ_Ï_ÌÌ_È_ËÂÌÚ_497-10);}.cls-68{fill:url(#_ÂÁ_Ï_ÌÌ_È_ËÂÌÚ_497-11);}.cls-69{fill:url(#_ÂÁ_Ï_ÌÌ_È_ËÂÌÚ_497-12);}.cls-70{fill:url(#_ÂÁ_Ï_ÌÌ_È_ËÂÌÚ_497-13);}.cls-71{fill:url(#_ÂÁ_Ï_ÌÌ_È_ËÂÌÚ_497-14);}.cls-72{fill:url(#_ÂÁ_Ï_ÌÌ_È_ËÂÌÚ_602-3);}.cls-73{fill:url(#_ÂÁ_Ï_ÌÌ_È_ËÂÌÚ_602-4);}.cls-74,.cls-75,.cls-76{opacity:0.3;}.cls-74{fill:url(#_ÂÁ_Ï_ÌÌ_È_ËÂÌÚ_656);}.cls-75{fill:url(#_ÂÁ_Ï_ÌÌ_È_ËÂÌÚ_656-2);}.cls-76{fill:url(#_ÂÁ_Ï_ÌÌ_È_ËÂÌÚ_656-3);}.cls-77{fill:url(#_ÂÁ_Ï_ÌÌ_È_ËÂÌÚ_497-15);}.cls-78{fill:url(#_ÂÁ_Ï_ÌÌ_È_ËÂÌÚ_497-16);}.cls-79{fill:url(#_ÂÁ_Ï_ÌÌ_È_ËÂÌÚ_497-17);}.cls-80{fill:url(#_ÂÁ_Ï_ÌÌ_È_ËÂÌÚ_497-18);}.cls-81{fill:url(#_ÂÁ_Ï_ÌÌ_È_ËÂÌÚ_497-19);}.cls-82{fill:url(#_ÂÁ_Ï_ÌÌ_È_ËÂÌÚ_497-20);}.cls-83{fill:url(#_ÂÁ_Ï_ÌÌ_È_ËÂÌÚ_497-21);}.cls-84{fill:url(#_ÂÁ_Ï_ÌÌ_È_ËÂÌÚ_497-22);}</style><linearGradient id="Dégradé_sans_nom_7" x1="960" x2="960" y2="1080" gradientUnits="userSpaceOnUse"><stop offset="0" stop-color="#0a0749"/><stop offset="0.48" stop-color="#120b51"/><stop offset="1" stop-color="#211260"/></linearGradient><radialGradient id="_ÂÁ_Ï_ÌÌ_È_ËÂÌÚ_638" cx="1518.94" cy="663.81" r="6.7" gradientTransform="translate(159.82 99.65) scale(0.81 0.84)" gradientUnits="userSpaceOnUse"><stop offset="0.02" stop-color="#cb2a18"/><stop offset="0.35" stop-color="#c92a18"/><stop offset="0.49" stop-color="#c22817"/><stop offset="0.59" stop-color="#b52515"/><stop offset="0.68" stop-color="#a32213"/><stop offset="0.76" stop-color="#8c1d11"/><stop offset="0.83" stop-color="#6f170d"/><stop offset="0.89" stop-color="#4d1009"/><stop offset="0.95" stop-color="#270805"/><stop offset="1"/></radialGradient><radialGradient id="_ÂÁ_Ï_ÌÌ_È_ËÂÌÚ_638-2" cx="1567.26" cy="869.68" r="6.7" xlink:href="#_ÂÁ_Ï_ÌÌ_È_ËÂÌÚ_638"/><radialGradient id="_ÂÁ_Ï_ÌÌ_È_ËÂÌÚ_638-3" cx="1583.21" cy="724.81" r="2.42" xlink:href="#_ÂÁ_Ï_ÌÌ_È_ËÂÌÚ_638"/><radialGradient id="_ÂÁ_Ï_ÌÌ_È_ËÂÌÚ_634" cx="1617.82" cy="518.22" r="2.42" gradientTransform="translate(159.82 99.65) scale(0.81 0.84)" gradientUnits="userSpaceOnUse"><stop offset="0.88" stop-color="#ec814a"/><stop offset="0.92" stop-color="#ea8049"/><stop offset="0.93" stop-color="#e37c47"/><stop offset="0.95" stop-color="#d67543"/><stop offset="0.96" stop-color="#c46b3e"/><stop offset="0.97" stop-color="#ad5f36"/><stop offset="0.98" stop-color="#904f2d"/><stop offset="0.98" stop-color="#6e3c22"/><stop offset="0.99" stop-color="#462616"/><stop offset="1" stop-color="#1b0f08"/><stop offset="1"/></radialGradient><radialGradient id="_ÂÁ_Ï_ÌÌ_È_ËÂÌÚ_634-2" cx="1622.89" cy="576.12" r="2.42" xlink:href="#_ÂÁ_Ï_ÌÌ_È_ËÂÌÚ_634"/><radialGradient id="_ÂÁ_Ï_ÌÌ_È_ËÂÌÚ_638-4" cx="1374.94" cy="663.81" r="2.42" xlink:href="#_ÂÁ_Ï_ÌÌ_È_ËÂÌÚ_638"/><radialGradient id="_ÂÁ_Ï_ÌÌ_È_ËÂÌÚ_27" cx="1537.48" cy="533.19" r="3.09" gradientTransform="translate(159.82 99.65) scale(0.81 0.84)" gradientUnits="userSpaceOnUse"><stop offset="0.02" stop-color="#966a4a"/><stop offset="0.37" stop-color="#946949"/><stop offset="0.52" stop-color="#8d6345"/><stop offset="0.64" stop-color="#805b3f"/><stop offset="0.73" stop-color="#6e4e36"/><stop offset="0.82" stop-color="#573d2b"/><stop offset="0.89" stop-color="#3a291d"/><stop offset="0.96" stop-color="#19120c"/><stop offset="1"/></radialGradient><radialGradient id="_ÂÁ_Ï_ÌÌ_È_ËÂÌÚ_27-2" cx="1491.17" cy="622.88" r="3.09" xlink:href="#_ÂÁ_Ï_ÌÌ_È_ËÂÌÚ_27"/><radialGradient id="_ÂÁ_Ï_ÌÌ_È_ËÂÌÚ_27-3" cx="1531.93" cy="864.64" r="3.09" xlink:href="#_ÂÁ_Ï_ÌÌ_È_ËÂÌÚ_27"/><radialGradient id="_ÂÁ_Ï_ÌÌ_È_ËÂÌÚ_27-4" cx="1586.19" cy="440.04" r="3.09" xlink:href="#_ÂÁ_Ï_ÌÌ_È_ËÂÌÚ_27"/><radialGradient id="_ÂÁ_Ï_ÌÌ_È_ËÂÌÚ_18" cx="1527.35" cy="511.07" r="22.12" gradientTransform="translate(159.82 99.65) scale(0.81 0.84)" gradientUnits="userSpaceOnUse"><stop offset="0.02" stop-color="#7c5542"/><stop offset="0.2" stop-color="#785240"/><stop offset="0.38" stop-color="#6c4a3a"/><stop offset="0.55" stop-color="#583c2f"/><stop offset="0.72" stop-color="#3c2920"/><stop offset="0.9" stop-color="#19110d"/><stop offset="1"/></radialGradient><radialGradient id="_ÂÁ_Ï_ÌÌ_È_ËÂÌÚ_18-2" cx="1559.64" cy="717.34" r="7.47" xlink:href="#_ÂÁ_Ï_ÌÌ_È_ËÂÌÚ_18"/><radialGradient id="_ÂÁ_Ï_ÌÌ_È_ËÂÌÚ_638-5" cx="397.23" cy="647.25" r="5.15" gradientTransform="matrix(-0.81, -0.02, 0.02, -0.84, 1696.55, 877.44)" xlink:href="#_ÂÁ_Ï_ÌÌ_È_ËÂÌÚ_638"/><radialGradient id="_ÂÁ_Ï_ÌÌ_È_ËÂÌÚ_638-6" cx="385.65" cy="711.49" r="1.86" gradientTransform="matrix(0, -0.81, 0.84, 0, 800.09, 587.12)" xlink:href="#_ÂÁ_Ï_ÌÌ_È_ËÂÌÚ_638"/><radialGradient id="_ÂÁ_Ï_ÌÌ_È_ËÂÌÚ_27-5" cx="388.03" cy="580.82" r="2.37" gradientTransform="matrix(0, -0.81, 0.84, 0, 905.64, 698.36)" xlink:href="#_ÂÁ_Ï_ÌÌ_È_ËÂÌÚ_27"/><radialGradient id="_ÂÁ_Ï_ÌÌ_È_ËÂÌÚ_27-6" cx="385.66" cy="654.97" r="2.37" gradientTransform="matrix(0, -0.81, 0.84, 0, 846.55, 634.39)" xlink:href="#_ÂÁ_Ï_ÌÌ_È_ËÂÌÚ_27"/><radialGradient id="_ÂÁ_Ï_ÌÌ_È_ËÂÌÚ_27-7" cx="425.42" cy="509.33" r="2.37" gradientTransform="matrix(0, -0.81, 0.84, 0, 934.21, 787.72)" xlink:href="#_ÂÁ_Ï_ÌÌ_È_ËÂÌÚ_27"/><radialGradient id="_ÂÁ_Ï_ÌÌ_È_ËÂÌÚ_18-3" cx="380.26" cy="563.84" r="16.98" gradientTransform="matrix(-0.81, -0.02, 0.02, -0.84, 1696.55, 877.44)" xlink:href="#_ÂÁ_Ï_ÌÌ_È_ËÂÌÚ_18"/><radialGradient id="_ÂÁ_Ï_ÌÌ_È_ËÂÌÚ_18-4" cx="344.83" cy="722.4" r="10.91" gradientTransform="matrix(-0.81, -0.02, 0.02, -0.84, 1696.55, 877.44)" xlink:href="#_ÂÁ_Ï_ÌÌ_È_ËÂÌÚ_18"/><radialGradient id="_ÂÁ_Ï_ÌÌ_È_ËÂÌÚ_18-5" cx="358.22" cy="675.62" r="5.73" gradientTransform="matrix(-0.81, -0.02, 0.02, -0.84, 1696.55, 877.44)" xlink:href="#_ÂÁ_Ï_ÌÌ_È_ËÂÌÚ_18"/><radialGradient id="_ÂÁ_Ï_ÌÌ_È_ËÂÌÚ_638-7" cx="818.09" cy="508.86" r="2.42" gradientTransform="matrix(-0.81, 0, 0, -0.84, 2133.87, 1071.92)" xlink:href="#_ÂÁ_Ï_ÌÌ_È_ËÂÌÚ_638"/><radialGradient id="_ÂÁ_Ï_ÌÌ_È_ËÂÌÚ_27-8" cx="737.76" cy="523.83" r="3.09" gradientTransform="matrix(-0.81, 0, 0, -0.84, 2132.93, 1067.83)" xlink:href="#_ÂÁ_Ï_ÌÌ_È_ËÂÌÚ_27"/><radialGradient id="_ÂÁ_Ï_ÌÌ_È_ËÂÌÚ_634-3" cx="786.46" cy="430.68" r="3.09" gradientTransform="matrix(-0.81, 0, 0, -0.84, 2137.98, 1070.18)" xlink:href="#_ÂÁ_Ï_ÌÌ_È_ËÂÌÚ_634"/><radialGradient id="_ÂÁ_Ï_ÌÌ_È_ËÂÌÚ_634-4" cx="964.78" cy="504.75" r="5.15" gradientTransform="matrix(0.81, -0.03, 0.04, 0.84, 575.97, 350.44)" xlink:href="#_ÂÁ_Ï_ÌÌ_È_ËÂÌÚ_634"/><radialGradient id="_ÂÁ_Ï_ÌÌ_È_ËÂÌÚ_638-8" cx="1084.46" cy="567.27" r="1.86" gradientTransform="matrix(0.81, 0, 0, 0.84, 595.72, 312.09)" xlink:href="#_ÂÁ_Ï_ÌÌ_È_ËÂÌÚ_638"/><radialGradient id="_ÂÁ_Ï_ÌÌ_È_ËÂÌÚ_27-9" cx="1175.46" cy="238.92" r="2.37" gradientTransform="matrix(0.81, 0, 0, 0.84, 583.74, 309.23)" xlink:href="#_ÂÁ_Ï_ÌÌ_È_ËÂÌÚ_27"/><radialGradient id="_ÂÁ_Ï_ÌÌ_È_ËÂÌÚ_27-10" cx="1084.46" cy="510.76" r="2.37" gradientTransform="matrix(0.81, 0, 0, 0.84, 593.65, 312.18)" xlink:href="#_ÂÁ_Ï_ÌÌ_È_ËÂÌÚ_27"/><radialGradient id="_ÂÁ_Ï_ÌÌ_È_ËÂÌÚ_27-11" cx="1190.49" cy="268.84" r="2.37" gradientTransform="matrix(0.81, 0, 0, 0.84, 584.81, 308.68)" xlink:href="#_ÂÁ_Ï_ÌÌ_È_ËÂÌÚ_27"/><radialGradient id="_ÂÁ_Ï_ÌÌ_È_ËÂÌÚ_18-6" cx="1115.26" cy="526.46" r="16.98" gradientTransform="matrix(0.81, -0.03, 0.04, 0.84, 575.97, 350.44)" xlink:href="#_ÂÁ_Ï_ÌÌ_È_ËÂÌÚ_18"/><radialGradient id="_ÂÁ_Ï_ÌÌ_È_ËÂÌÚ_18-7" cx="1043.64" cy="578.18" r="10.91" gradientTransform="matrix(0.81, -0.03, 0.04, 0.84, 575.97, 350.44)" xlink:href="#_ÂÁ_Ï_ÌÌ_È_ËÂÌÚ_18"/><radialGradient id="_ÂÁ_Ï_ÌÌ_È_ËÂÌÚ_18-8" cx="1057.02" cy="531.41" r="5.73" gradientTransform="matrix(0.81, -0.03, 0.04, 0.84, 575.97, 350.44)" xlink:href="#_ÂÁ_Ï_ÌÌ_È_ËÂÌÚ_18"/><radialGradient id="_ÂÁ_Ï_ÌÌ_È_ËÂÌÚ_18-9" cx="1502.68" cy="954.48" r="7.47" xlink:href="#_ÂÁ_Ï_ÌÌ_È_ËÂÌÚ_18"/><radialGradient id="_ÂÁ_Ï_ÌÌ_È_ËÂÌÚ_648" cx="1544.86" cy="855.27" r="113.98" gradientUnits="userSpaceOnUse"><stop offset="0" stop-color="#ff0c37"/><stop offset="1" stop-color="#de0038"/></radialGradient><radialGradient id="_ÂÁ_Ï_ÌÌ_È_ËÂÌÚ_574" cx="1544.81" cy="804.32" r="105.04" gradientUnits="userSpaceOnUse"><stop offset="0" stop-color="#d49fdb"/><stop offset="0.99" stop-color="#b060f4"/></radialGradient><radialGradient id="_ÂÁ_Ï_ÌÌ_È_ËÂÌÚ_589" cx="1545.04" cy="852.61" r="118.68" gradientTransform="translate(0 145.88) scale(1 0.76)" gradientUnits="userSpaceOnUse"><stop offset="0" stop-color="#ffdeb8"/><stop offset="1" stop-color="#ff998b"/></radialGradient><radialGradient id="_ÂÁ_Ï_ÌÌ_È_ËÂÌÚ_543" cx="1547.38" cy="839.86" r="107.45" gradientTransform="translate(0 145.88) scale(1 0.76)" gradientUnits="userSpaceOnUse"><stop offset="0" stop-color="#ffb0a9"/><stop offset="1" stop-color="#ff7a7e"/></radialGradient><linearGradient id="_ÂÁ_Ï_ÌÌ_È_ËÂÌÚ_594" x1="1546.82" y1="806.17" x2="1546.82" y2="792.51" gradientUnits="userSpaceOnUse"><stop offset="0" stop-color="#fff"/><stop offset="0.99" stop-color="#d360f4"/></linearGradient><linearGradient id="_ÂÁ_Ï_ÌÌ_È_ËÂÌÚ_601" x1="1545.15" y1="804.3" x2="1545.15" y2="783.09" gradientUnits="userSpaceOnUse"><stop offset="0"/><stop offset="0.99" stop-color="#efbe61"/></linearGradient><linearGradient id="_ÂÁ_Ï_ÌÌ_È_ËÂÌÚ_602" x1="1632.86" y1="796.69" x2="1632.86" y2="773.74" xlink:href="#_ÂÁ_Ï_ÌÌ_È_ËÂÌÚ_574"/><linearGradient id="_ÂÁ_Ï_ÌÌ_È_ËÂÌÚ_602-2" x1="1441.84" y1="794.37" x2="1441.84" y2="774.9" xlink:href="#_ÂÁ_Ï_ÌÌ_È_ËÂÌÚ_574"/><radialGradient id="_ÂÁ_Ï_ÌÌ_È_ËÂÌÚ_543-2" cx="1495.13" cy="1013.13" r="203.43" gradientTransform="matrix(1, 0, 0, 1, 0, 0)" xlink:href="#_ÂÁ_Ï_ÌÌ_È_ËÂÌÚ_543"/><linearGradient id="_ÂÁ_Ï_ÌÌ_È_ËÂÌÚ_583" x1="1429.27" y1="1078.95" x2="1429.27" y2="958.65" gradientTransform="translate(401.81) scale(0.6 1)" gradientUnits="userSpaceOnUse"><stop offset="0" stop-color="#ef0437"/><stop offset="1" stop-color="#c40038"/></linearGradient><linearGradient id="_ÂÁ_Ï_ÌÌ_È_ËÂÌÚ_583-2" x1="1326.08" y1="1079.16" x2="1326.08" y2="961.76" gradientTransform="matrix(1, 0, 0, 1, 0, 0)" xlink:href="#_ÂÁ_Ï_ÌÌ_È_ËÂÌÚ_583"/><linearGradient id="_ÂÁ_Ï_ÌÌ_È_ËÂÌÚ_583-3" x1="1331.99" y1="1078.96" x2="1331.99" y2="966.8" gradientTransform="translate(-524.19) scale(1.48 1)" xlink:href="#_ÂÁ_Ï_ÌÌ_È_ËÂÌÚ_583"/><linearGradient id="_ÂÁ_Ï_ÌÌ_È_ËÂÌÚ_583-4" x1="1437.16" y1="1078.95" x2="1437.16" y2="965" gradientTransform="translate(-496.29) scale(1.44 1)" xlink:href="#_ÂÁ_Ï_ÌÌ_È_ËÂÌÚ_583"/><linearGradient id="_ÂÁ_Ï_ÌÌ_È_ËÂÌÚ_583-5" x1="1676.86" y1="1059.43" x2="1676.86" y2="945.49" gradientTransform="translate(0 -39.6) scale(1 1.06)" xlink:href="#_ÂÁ_Ï_ÌÌ_È_ËÂÌÚ_583"/><linearGradient id="_ÂÁ_Ï_ÌÌ_È_ËÂÌÚ_583-6" x1="2797.82" y1="1059.63" x2="2797.82" y2="937.25" gradientTransform="translate(773.72 -39.6) scale(0.35 1.06)" xlink:href="#_ÂÁ_Ï_ÌÌ_È_ËÂÌÚ_583"/><radialGradient id="_ÂÁ_Ï_ÌÌ_È_ËÂÌÚ_574-2" cx="1495.04" cy="970.67" r="198.44" xlink:href="#_ÂÁ_Ï_ÌÌ_È_ËÂÌÚ_574"/><radialGradient id="_ÂÁ_Ï_ÌÌ_È_ËÂÌÚ_589-2" cx="1495.47" cy="949.96" r="224.2" gradientTransform="matrix(1, 0, 0, 1, 0, 0)" xlink:href="#_ÂÁ_Ï_ÌÌ_È_ËÂÌÚ_589"/><radialGradient id="_ÂÁ_Ï_ÌÌ_È_ËÂÌÚ_543-3" cx="1499.88" cy="925.87" r="202.99" gradientTransform="matrix(1, 0, 0, 1, 0, 0)" xlink:href="#_ÂÁ_Ï_ÌÌ_È_ËÂÌÚ_543"/><linearGradient id="_ÂÁ_Ï_ÌÌ_È_ËÂÌÚ_594-2" x1="1498.83" y1="978.61" x2="1498.83" y2="944.7" xlink:href="#_ÂÁ_Ï_ÌÌ_È_ËÂÌÚ_594"/><linearGradient id="_ÂÁ_Ï_ÌÌ_È_ËÂÌÚ_601-2" x1="1495.68" y1="973.95" x2="1495.68" y2="921.3" xlink:href="#_ÂÁ_Ï_ÌÌ_È_ËÂÌÚ_601"/><radialGradient id="_ÂÁ_Ï_ÌÌ_È_ËÂÌÚ_497" cx="1560.83" cy="875.79" r="13.69" gradientUnits="userSpaceOnUse"><stop offset="0" stop-color="#ffc73e"/><stop offset="1" stop-color="#ff7506"/></radialGradient><radialGradient id="_ÂÁ_Ï_ÌÌ_È_ËÂÌÚ_497-2" cx="1560.83" cy="875.79" r="13.69" xlink:href="#_ÂÁ_Ï_ÌÌ_È_ËÂÌÚ_497"/><radialGradient id="_ÂÁ_Ï_ÌÌ_È_ËÂÌÚ_497-3" cx="1537.6" cy="958.15" r="25.58" xlink:href="#_ÂÁ_Ï_ÌÌ_È_ËÂÌÚ_497"/><radialGradient id="_ÂÁ_Ï_ÌÌ_È_ËÂÌÚ_497-4" cx="1537.59" cy="966.1" r="27.03" xlink:href="#_ÂÁ_Ï_ÌÌ_È_ËÂÌÚ_497"/><radialGradient id="_ÂÁ_Ï_ÌÌ_È_ËÂÌÚ_497-5" cx="1395.9" cy="955.56" r="3.9" xlink:href="#_ÂÁ_Ï_ÌÌ_È_ËÂÌÚ_497"/><radialGradient id="_ÂÁ_Ï_ÌÌ_È_ËÂÌÚ_497-6" cx="1105.84" cy="1399.46" r="12.88" gradientTransform="matrix(0.94, -0.35, 0.35, 0.94, -34.39, -302.97)" xlink:href="#_ÂÁ_Ï_ÌÌ_È_ËÂÌÚ_497"/><radialGradient id="_ÂÁ_Ï_ÌÌ_È_ËÂÌÚ_497-7" cx="1390.48" cy="742.49" r="52.06" xlink:href="#_ÂÁ_Ï_ÌÌ_È_ËÂÌÚ_497"/><radialGradient id="_ÂÁ_Ï_ÌÌ_È_ËÂÌÚ_497-8" cx="1390.48" cy="742.49" r="52.06" xlink:href="#_ÂÁ_Ï_ÌÌ_È_ËÂÌÚ_497"/><radialGradient id="_ÂÁ_Ï_ÌÌ_È_ËÂÌÚ_497-9" cx="1429.78" cy="843.36" r="28" xlink:href="#_ÂÁ_Ï_ÌÌ_È_ËÂÌÚ_497"/><radialGradient id="_ÂÁ_Ï_ÌÌ_È_ËÂÌÚ_497-10" cx="1429.78" cy="843.36" r="28" xlink:href="#_ÂÁ_Ï_ÌÌ_È_ËÂÌÚ_497"/><radialGradient id="_ÂÁ_Ï_ÌÌ_È_ËÂÌÚ_497-11" cx="994.79" cy="1309.54" r="28" gradientTransform="matrix(0.62, -0.78, 0.78, 0.62, -57.33, 657.65)" xlink:href="#_ÂÁ_Ï_ÌÌ_È_ËÂÌÚ_497"/><radialGradient id="_ÂÁ_Ï_ÌÌ_È_ËÂÌÚ_497-12" cx="994.79" cy="1309.54" r="28" gradientTransform="matrix(0.62, -0.78, 0.78, 0.62, -57.33, 657.65)" xlink:href="#_ÂÁ_Ï_ÌÌ_È_ËÂÌÚ_497"/><radialGradient id="_ÂÁ_Ï_ÌÌ_È_ËÂÌÚ_497-13" cx="1088.62" cy="515.1" r="28" gradientTransform="translate(213.8 -349.95) rotate(7.34)" xlink:href="#_ÂÁ_Ï_ÌÌ_È_ËÂÌÚ_497"/><radialGradient id="_ÂÁ_Ï_ÌÌ_È_ËÂÌÚ_497-14" cx="1088.62" cy="515.1" r="28" gradientTransform="translate(213.8 -349.95) rotate(7.34)" xlink:href="#_ÂÁ_Ï_ÌÌ_È_ËÂÌÚ_497"/><linearGradient id="_ÂÁ_Ï_ÌÌ_È_ËÂÌÚ_602-3" x1="1661.38" y1="955.08" x2="1661.38" y2="898.09" xlink:href="#_ÂÁ_Ï_ÌÌ_È_ËÂÌÚ_574"/><linearGradient id="_ÂÁ_Ï_ÌÌ_È_ËÂÌÚ_602-4" x1="1300.51" y1="949.31" x2="1300.51" y2="900.97" xlink:href="#_ÂÁ_Ï_ÌÌ_È_ËÂÌÚ_574"/><linearGradient id="_ÂÁ_Ï_ÌÌ_È_ËÂÌÚ_656" x1="1608.38" y1="669.47" x2="1631.75" y2="669.47" gradientUnits="userSpaceOnUse"><stop offset="0" stop-color="#f66086"/><stop offset="0.99" stop-color="#db2c7e"/></linearGradient><linearGradient id="_ÂÁ_Ï_ÌÌ_È_ËÂÌÚ_656-2" x1="1594.06" y1="682.63" x2="1619.61" y2="682.63" xlink:href="#_ÂÁ_Ï_ÌÌ_È_ËÂÌÚ_656"/><linearGradient id="_ÂÁ_Ï_ÌÌ_È_ËÂÌÚ_656-3" x1="1585.94" y1="696.85" x2="1610.62" y2="696.85" xlink:href="#_ÂÁ_Ï_ÌÌ_È_ËÂÌÚ_656"/><radialGradient id="_ÂÁ_Ï_ÌÌ_È_ËÂÌÚ_497-15" cx="1668.04" cy="210.33" r="6.02" xlink:href="#_ÂÁ_Ï_ÌÌ_È_ËÂÌÚ_497"/><radialGradient id="_ÂÁ_Ï_ÌÌ_È_ËÂÌÚ_497-16" cx="1668.04" cy="210.33" r="6.02" xlink:href="#_ÂÁ_Ï_ÌÌ_È_ËÂÌÚ_497"/><radialGradient id="_ÂÁ_Ï_ÌÌ_È_ËÂÌÚ_497-17" cx="1718.44" cy="393.53" r="29.27" xlink:href="#_ÂÁ_Ï_ÌÌ_È_ËÂÌÚ_497"/><radialGradient id="_ÂÁ_Ï_ÌÌ_È_ËÂÌÚ_497-18" cx="1718.44" cy="393.53" r="29.27" xlink:href="#_ÂÁ_Ï_ÌÌ_È_ËÂÌÚ_497"/><radialGradient id="_ÂÁ_Ï_ÌÌ_È_ËÂÌÚ_497-19" cx="1718.44" cy="393.53" r="29.27" xlink:href="#_ÂÁ_Ï_ÌÌ_È_ËÂÌÚ_497"/><radialGradient id="_ÂÁ_Ï_ÌÌ_È_ËÂÌÚ_497-20" cx="885.6" cy="1660.76" r="5.67" gradientTransform="matrix(0.17, -0.98, 0.98, 0.17, -207.59, 1080.75)" xlink:href="#_ÂÁ_Ï_ÌÌ_È_ËÂÌÚ_497"/><radialGradient id="_ÂÁ_Ï_ÌÌ_È_ËÂÌÚ_497-21" cx="1513.78" cy="306.19" r="22.91" xlink:href="#_ÂÁ_Ï_ÌÌ_È_ËÂÌÚ_497"/><radialGradient id="_ÂÁ_Ï_ÌÌ_È_ËÂÌÚ_497-22" cx="1513.78" cy="306.19" r="22.91" xlink:href="#_ÂÁ_Ï_ÌÌ_È_ËÂÌÚ_497"/></defs><title>popcorn</title><g class="cls-1"><g id="Calque_2" data-name="Calque 2"><rect class="cls-2" width="1920" height="1080"/></g><g id="Calque_4" data-name="Calque 4"><g id="Calque_1" data-name="Calque 1"><ellipse class="cls-3" cx="1386.36" cy="656.06" rx="5.41" ry="5.62"/><ellipse class="cls-4" cx="1425.38" cy="828.62" rx="5.41" ry="5.62"/><ellipse class="cls-5" cx="1438.26" cy="707.19" rx="1.95" ry="2.03"/><ellipse class="cls-6" cx="1466.21" cy="534.02" rx="1.95" ry="2.03"/><ellipse class="cls-7" cx="1470.3" cy="582.55" rx="1.95" ry="2.03"/><ellipse class="cls-8" cx="1270.08" cy="656.06" rx="1.95" ry="2.03"/><ellipse class="cls-9" cx="1401.34" cy="546.57" rx="2.5" ry="2.59"/><ellipse class="cls-10" cx="1363.94" cy="621.75" rx="2.5" ry="2.59"/><ellipse class="cls-11" cx="1396.86" cy="824.4" rx="2.5" ry="2.59"/><ellipse class="cls-12" cx="1440.67" cy="468.5" rx="2.5" ry="2.59"/><ellipse class="cls-13" cx="1393.16" cy="528.03" rx="17.86" ry="18.54"/><ellipse class="cls-14" cx="1419.23" cy="700.93" rx="6.03" ry="6.26"/><path class="cls-15" d="M1382,328.34a4.16,4.16,0,1,1,4.07,4.4A4.23,4.23,0,0,1,1382,328.34Z"/><ellipse class="cls-16" cx="1396.49" cy="274.78" rx="1.56" ry="1.5" transform="translate(1093.19 1665.35) rotate(-88.83)"/><ellipse class="cls-17" cx="1392.49" cy="384.26" rx="1.99" ry="1.92" transform="translate(979.79 1768.58) rotate(-88.83)"/><ellipse class="cls-18" cx="1395.59" cy="322.15" rx="1.99" ry="1.92" transform="translate(1045.02 1710.87) rotate(-88.83)"/><ellipse class="cls-19" cx="1361.17" cy="443.55" rx="1.99" ry="1.92" transform="translate(889.92 1795.38) rotate(-88.83)"/><path class="cls-20" d="M1384.79,398.33a13.72,13.72,0,1,1,13.44,14.51A14,14,0,0,1,1384.79,398.33Z"/><path class="cls-21" d="M1420.81,266.13a8.82,8.82,0,1,1,8.63,9.32A9,9,0,0,1,1420.81,266.13Z"/><path class="cls-22" d="M1413.44,305.2a4.63,4.63,0,1,1,4.54,4.9A4.71,4.71,0,0,1,1413.44,305.2Z"/><ellipse class="cls-23" cx="1473.22" cy="645.45" rx="1.95" ry="2.03" transform="translate(-38.05 94.97) rotate(-3.65)"/><ellipse class="cls-24" cx="1537.17" cy="628.8" rx="2.5" ry="2.59" transform="translate(-36.87 99.02) rotate(-3.65)"/><ellipse class="cls-25" cx="1502.88" cy="709.22" rx="2.5" ry="2.59" transform="translate(-42.06 97.01) rotate(-3.65)"/><path class="cls-26" d="M1377.39,739.28a4.16,4.16,0,1,1-4.34-4.13A4.23,4.23,0,0,1,1377.39,739.28Z"/><ellipse class="cls-27" cx="1472.13" cy="787.63" rx="1.5" ry="1.56" transform="translate(-32.69 64.41) rotate(-2.48)"/><ellipse class="cls-28" cx="1533.27" cy="509.49" rx="1.92" ry="1.99" transform="translate(-20.58 66.73) rotate(-2.48)"/><ellipse class="cls-29" cx="1470.01" cy="740.31" rx="1.92" ry="1.99" transform="translate(-30.62 64.21) rotate(-2.48)"/><ellipse class="cls-30" cx="1546.51" cy="534.02" rx="1.92" ry="1.99" transform="translate(-21.63 67.33) rotate(-2.48)"/><path class="cls-31" d="M1509.15,751.79a13.72,13.72,0,1,1-14.33-13.62A14,14,0,0,1,1509.15,751.79Z"/><path class="cls-32" d="M1448.41,797.81a8.82,8.82,0,1,1-9.21-8.76A9,9,0,0,1,1448.41,797.81Z"/><path class="cls-33" d="M1453.28,758.36a4.63,4.63,0,1,1-4.84-4.6A4.71,4.71,0,0,1,1453.28,758.36Z"/><ellipse class="cls-34" cx="1373.23" cy="899.7" rx="6.03" ry="6.26"/><polygon class="cls-35" points="1396.62 795.58 1408.31 918.58 1676.85 918.58 1693.11 791.95 1396.62 795.58"/><path class="cls-36" d="M1397.09,799.6s161.07,25.31,292.72,12.31l3.12-18.9-296.24,3.19Z"/><path class="cls-37" d="M1711.09,792.49H1711c-3.57.62-80.7,13.66-166.67,13.66-79.54,0-146.07-7.16-161.61-12.58l-.09,0h0a7.76,7.76,0,0,1-3.07-1.62c-4.67-5.47,2.35-8.85,2.35-8.85,216.68,13.85,326.46,1.6,326.46,1.6C1714.92,786.16,1711.09,792.49,1711.09,792.49Z"/><path class="cls-38" d="M1381.84,783.09s171.35-34.11,326.45,1.6C1708.3,784.69,1553.19,824.67,1381.84,783.09Z"/><path class="cls-39" d="M1698.14,785.19s-44.91,9.48-108.56,13q-6.17.34-12.57.6c-4.7.18-9.48.35-14.34.45q-5.94.13-12,.18-2.48,0-5,0h-3.17c-6.25,0-12.61-.1-19-.27l-.44,0-.85,0c-8.93-.25-18-.66-27.19-1.28l-5.25-.37c-4.23-.31-8.48-.67-12.74-1.07a548.33,548.33,0,0,1-80.33-13.3S1536.66,753.27,1698.14,785.19Z"/><path class="cls-40" d="M1711,792.51c-3.57.62-80.7,13.66-166.67,13.66-79.54,0-146.07-7.16-161.61-12.58,2.53.65,45.68,11.32,162.39,10.8A1268.53,1268.53,0,0,0,1711,792.51Z"/><path class="cls-41" d="M1381.84,783.09s-6.48,3-2.35,8.85c0,0,73.2,12.36,176.23,12.36s156-13.31,156-13.31,2.19-5.8-3.48-6.3c0,0-61.56,16-155.11,16S1381.84,783.09,1381.84,783.09Z"/><path class="cls-42" d="M1611.3,796.69l6.09-23,37,4.17-2.76,14.64S1615.82,796.34,1611.3,796.69Z"/><path class="cls-43" d="M1428.73,789.9l-3.45-11.58,28.31-3.42,4.81,19.47S1437.91,791.62,1428.73,789.9Z"/><polygon class="cls-44" points="1215.08 954.16 1229.61 1078.95 1753.44 1078.95 1775.19 947.31 1215.08 954.16"/><polygon class="cls-45" points="1242.76 958.65 1248.08 1078.95 1273.42 1078.95 1266.54 963.98 1242.76 958.65"/><polygon class="cls-46" points="1302.29 961.76 1308.92 1079.16 1349.86 1078.95 1349.86 963.54 1302.29 961.76"/><polygon class="cls-47" points="1408.94 966.8 1418.94 1078.95 1480.42 1078.96 1483.26 968.22 1408.94 966.8"/><polygon class="cls-48" points="1535.76 967.52 1538.45 1078.95 1590.66 1078.95 1600.62 965 1535.76 967.52"/><polygon class="cls-49" points="1656.97 961.3 1651.59 1078.95 1687.93 1078.95 1702.12 958.65 1656.97 961.3"/><polygon class="cls-50" points="1741.11 952.6 1730.14 1079.16 1742.73 1079.16 1756.76 949.95 1741.11 952.6"/><path class="cls-51" d="M1216,961.76s304.28,47.81,553,23.26l5.9-35.71-559.65,6Z"/><path class="cls-52" d="M1809.16,944.64a.08.08,0,0,0-.05,0,.53.53,0,0,0-.19,0c-6.75,1.53-152.46,33.91-314.87,33.91-150.26,0-276-17.78-305.3-31.22l-.16-.05a.08.08,0,0,0-.05,0c-3-1.4-5-2.74-5.81-4-8.82-13.58,4.44-22,4.44-22,409.35,34.4,616.73,4,616.73,4C1816.39,928.94,1809.16,944.64,1809.16,944.64Z"/><path class="cls-38" d="M1187.16,921.3s323.71-84.69,616.72,4C1803.88,925.27,1510.86,1024.55,1187.16,921.3Z"/><path class="cls-53" d="M1784.69,926.52s-84.85,23.53-205.09,32.19q-11.66.85-23.75,1.48c-8.87.46-17.91.86-27.08,1.13q-11.21.32-22.7.46-4.68.08-9.44.08h-6c-11.81,0-23.83-.24-36-.67-.27,0-.56,0-.83-.05-.54,0-1.08,0-1.61-.05-16.86-.62-34-1.64-51.37-3.17-3.31-.3-6.62-.59-9.92-.91-8-.78-16-1.67-24.07-2.66-50.16-6.19-101.44-16.65-151.76-33C1215.08,921.3,1479.63,847.26,1784.69,926.52Z"/><path class="cls-54" d="M1808.92,944.7c-6.75,1.53-152.46,33.91-314.87,33.91-150.26,0-276-17.78-305.3-31.22,4.79,1.61,86.3,28.1,306.78,26.81C1663.1,973.21,1802.36,946,1808.92,944.7Z"/><path class="cls-55" d="M1187.16,921.3s-12.24,7.37-4.43,22c0,0,138.28,30.68,332.93,30.68s294.8-33,294.8-33,4.14-14.4-6.57-15.65c0,0-116.3,39.73-293,39.73S1187.16,921.3,1187.16,921.3Z"/><path class="cls-56" d="M1541.71,901s8.19,14.36,33.76,5.22,20.35-31.76,20.35-31.76h-20.35l6.87-12.15s-17.84-28.3-37-20-9.35,26.28-9.35,26.28-8.87-4.13-15.2.67,1.77,20.72,8.81,19.94c0,0-11.83,7.05-11.1,11S1534.83,919.67,1541.71,901Z"/><path class="cls-57" d="M1537.2,884.47c-4.69-4.06,2.71-15.92,2.71-15.92s13.67-8.12,23.53-4.35,8.21,11.15,8.21,11.15-3.52-.13-14.28,2.77,9.54,3.48,9.54,3.48S1549.23,894.88,1537.2,884.47Z"/><path class="cls-58" d="M1530,890.44s-9.06,4.21-8.33,7.69,13.42,4.79,14,1.45S1530,890.44,1530,890.44Z"/><path class="cls-59" d="M1541.71,901l2-7.33s2.77,13,11.64,15.25,20.14-2.69,20.14-2.69S1554.93,916.13,1541.71,901Z"/><path class="cls-59" d="M1575.48,874.43l-3.82,3.25s-1.59-13.12,10.69-15.41Z"/><path class="cls-59" d="M1536,868.51l3.9,0a14.66,14.66,0,0,1-6.38-9.59S1533.82,865.35,1536,868.51Z"/><path class="cls-56" d="M1579.6,958.71q-11.66.85-23.75,1.48c-8.87.46-17.91.86-27.08,1.13q-11.21.32-22.7.46-4.68.08-9.44.08h-6c2.5-7.77,12-21.73,19-19.28,8.71,3,16.81,11.81,16.81,11.81s-5.35-12.83-1-15,7.4,12.59,7.4,12.59l8.39-27.46s35.53-2.53,44.21,10.95C1589.9,942.36,1585.22,951.45,1579.6,958.71Z"/><path class="cls-60" d="M1555.85,960.19c-8.87.46-17.91.86-27.08,1.13a2.63,2.63,0,0,1,.38-1.29c1.53-2.18,6.32-4.2,6.32-4.2a14.15,14.15,0,0,1,11.48-5.81C1553.21,949.86,1555.26,957.07,1555.85,960.19Z"/><path class="cls-61" d="M1508.06,960.24a4,4,0,0,1-2,1.53q-4.68.08-9.44.08a1.67,1.67,0,0,1-1-1.61l3.68-8,10-3.9S1510,957,1508.06,960.24Z"/><path class="cls-56" d="M1453.81,961.13c-.54,0-1.08,0-1.61-.05-16.86-.62-34-1.64-51.37-3.17-3.31-.3-6.62-.59-9.92-.91-8-.78-16-1.67-24.07-2.66,3.71-6.59,9-11.89,14.63-12.18a24,24,0,0,1,19.9,9.14s3.25-24.23,8.87-22.78c5.27,1.37-.3,21.49-1,23.94.62-1.72,4.65-12.59,10.81-17.91a10.48,10.48,0,0,1,7.21-3h0a7.32,7.32,0,0,1,1.8.27c5.19,1.37,12.26,8.26,17.8,16.38a63.71,63.71,0,0,1,3.47,5.57s0,0,0,.05A57.14,57.14,0,0,1,1453.81,961.13Z"/><path class="cls-62" d="M1400.89,954a18.55,18.55,0,0,0-.05,3.9c-3.31-.3-6.62-.59-9.92-.91a32.73,32.73,0,0,1,5.54-3.77Z"/><path class="cls-59" d="M1454.65,961.18c-.27,0-.56,0-.83-.05-.54,0-1.08,0-1.61-.05a33.47,33.47,0,0,0-1.8-7.23s0,0,0-.05a17.27,17.27,0,0,0-3.47-5.57c-8.61-9.79-26.84-13.69-26.84-13.69a13.74,13.74,0,0,1,7.21-3h0C1439.59,930.53,1450.64,948.95,1454.65,961.18Z"/><path class="cls-56" d="M1478.15,617.42c-2.22.77-19.83-15.66-15.08-24.82s33.5-13.46,40.65-2.67a24.07,24.07,0,0,1,2.27,21.79s22.51-9.55,24.12-4-21.33,11.4-21.33,11.4,24.75-5.24,28.07,6.52-12.82,46.33-26,44.16-22.51-40.11-22.51-40.11-12.94,1.84-22.13-2.84-1.89-13.26-1.89-13.26Z"/><path class="cls-63" d="M1480.27,616.56s.54-7.64,6.1-11,15.45,2.87,15.45,2.87l1.59,4.23s-14.35,5.83-10.67,20.56l-8-4.75Z"/><path class="cls-59" d="M1529.95,619.27s8.17,24.29-1.13,35.87a34.8,34.8,0,0,1-22.41,12.61s3.11,5.6,12.26.26S1551.18,627.91,1529.95,619.27Z"/><path class="cls-56" d="M1367.57,735.31s-19.81-15-16-24.26,29.34-1.06,29.34-1.06,7.83-19.65,27.41-16.17l-13.49,41.48s16.58-12.83,21.12,0l7.51-14.53s15.46.82,22.34,19.09-13.92,26.34-13.92,26.34l-10-6.57,7.7,10.61s-10.83,19.21-44.33,16.17l-.43-7.26-21.75,10.32s-26.1-1.72-29.15-23.27S1367.57,735.31,1367.57,735.31Z"/><path class="cls-64" d="M1420.6,735.82l5-9.57s13.26,6,13.3,15.21a14.74,14.74,0,0,1-7.21,12.93S1425.24,736.33,1420.6,735.82Z"/><path class="cls-65" d="M1392,738.79s-7.61-3.92-12.18-3.7-5.66,6.36-5.66,6.36l-12.18,5.6s.22,17.4,15,20.88,21.32-7.83,21.32-7.83l-7.83-11.75,7.83,6,3.26-11.69-6.53-1.23-.87-4Z"/><polygon class="cls-59" points="1360.51 729.12 1375.25 736.62 1367.57 735.31 1360.51 729.12"/><path class="cls-56" d="M1448.06,841.91l-7.25-21.17s-14.72-7.54-25.92,6.38,5.62,24.95,5.62,24.95l-7.65,6s12.39,7.83,16.69,6.7,18.51-10.08,18.51-10.08,15.59,3.22,16.35,0S1476.19,815.52,1448.06,841.91Z"/><path class="cls-66" d="M1449.36,847.57s7.43-9.79,12.62-8.92,0,12.4,0,12.4Z"/><path class="cls-67" d="M1440.66,840s-5.22-5.87-12.83-3.48-4.57,12.62-4.57,12.62l-.6,5.44,7.34,3.56s10.22-7.75,10.66-11.09A33.27,33.27,0,0,0,1440.66,840Z"/><path class="cls-59" d="M1448.06,854.71l-2-5.11,10.79,6.4A11.61,11.61,0,0,1,1448.06,854.71Z"/><path class="cls-56" d="M1596.94,683.36l-21.06-7.56s-15.08,6.79-11.21,24.23,23,11.19,23,11.19l-.07,9.74s13.85-4.79,15.66-8.85,3.68-20.75,3.68-20.75,12.25-10.16,10.21-12.77S1593.9,644.91,1596.94,683.36Z"/><path class="cls-68" d="M1602.17,685.87s-3-11.92.91-15.42,9.68,7.74,9.68,7.74Z"/><path class="cls-69" d="M1590.79,687.91s-7.85.41-10.73,7.85,7,11.45,7,11.45l3.87,3.87,7.37-3.51s.33-12.82-2-15.25A33.27,33.27,0,0,0,1590.79,687.91Z"/><path class="cls-59" d="M1606.93,691.35l-5.26-1.6,11.74-4.44A11.61,11.61,0,0,1,1606.93,691.35Z"/><path class="cls-56" d="M1246,300.83l-4.49-21.92s-13.64-9.36-26.53,3,2.39,25.46,2.39,25.46l-8.36,5s11.29,9.34,15.7,8.78,19.65-7.64,19.65-7.64,15.05,5.19,16.22,2.09S1277.3,278.25,1246,300.83Z"/><path class="cls-70" d="M1246.6,306.61s8.62-8.76,13.65-7.23-1.58,12.3-1.58,12.3Z"/><path class="cls-71" d="M1238.94,297.95s-4.43-6.49-12.28-5.09-6.14,11.93-6.14,11.93l-1.29,5.32,6.83,4.47s11.13-6.38,12-9.64A33.29,33.29,0,0,0,1238.94,297.95Z"/><path class="cls-59" d="M1244.39,313.52,1243,308.2l9.89,7.72A11.61,11.61,0,0,1,1244.39,313.52Z"/><path class="cls-72" d="M1620.64,955.08l11.51-57,70,10.35-5.21,36.35S1629.17,954.21,1620.64,955.08Z"/><path class="cls-73" d="M1275.74,938.21l-6.52-28.75,53.48-8.48,9.09,48.34S1293.09,942.49,1275.74,938.21Z"/><path class="cls-38" d="M1550.65,799.39l38.71-101.63L1585.94,686h8.12V669.24h14.32V654.16l7.64,5.2,93.78-69s13.79,6.17,13.79,30.1l-93.64,51,1.8,13.31L1621,681.32l-1.35,11.48L1606.13,696l4.49,11.24-7.18.45-31.17,91.23Z"/><polygon class="cls-74" points="1608.38 654.16 1631.75 684.77 1620.96 681.32 1608.38 669.24 1608.38 654.16"/><polygon class="cls-75" points="1619.61 692.81 1594.06 669.24 1594.06 686.01 1606.13 696.01 1619.61 692.81"/><polygon class="cls-76" points="1610.62 707.25 1585.94 686.01 1589.37 697.76 1603.43 707.7 1610.62 707.25"/><path class="cls-56" d="M1659.63,221.4s3.6,6.32,14.85,2.3,9-14,9-14h-9l3-5.35s-7.85-12.45-16.27-8.82-4.11,11.56-4.11,11.56-3.9-1.82-6.69.3.78,9.12,3.88,8.77c0,0-5.21,3.1-4.88,4.82S1656.6,229.63,1659.63,221.4Z"/><path class="cls-77" d="M1657.64,214.14c-2.06-1.79,1.19-7,1.19-7s6-3.57,10.35-1.91,3.61,4.9,3.61,4.9-1.55-.06-6.28,1.22,4.2,1.53,4.2,1.53S1662.94,218.72,1657.64,214.14Z"/><path class="cls-78" d="M1654.48,216.77s-4,1.85-3.67,3.38,5.9,2.11,6.14.64S1654.48,216.77,1654.48,216.77Z"/><path class="cls-59" d="M1659.63,221.4l.87-3.23s1.22,5.73,5.12,6.71,8.86-1.19,8.86-1.19S1665.44,228.07,1659.63,221.4Z"/><path class="cls-59" d="M1674.48,209.73l-1.68,1.43s-.7-5.77,4.7-6.78Z"/><path class="cls-59" d="M1657.12,207.12h1.71a6.45,6.45,0,0,1-2.81-4.22A10.05,10.05,0,0,0,1657.12,207.12Z"/><path class="cls-56" d="M1706.38,379.68s-8.77-9.47-18.17-12.77-23.19,21.1-21,25.5,29.14,2.81,29.14,2.81,3.13,24.75,10,31.34,40.92,15.33,47.4,0-22.13-32.13-22.13-32.13l19.53,3.06s28.28-23.7,18.91-38.26-47.76-11.83-47.76-11.83L1713.28,377s-3.29-15.94-8-13.59S1706.38,379.68,1706.38,379.68Z"/><path class="cls-79" d="M1738.36,387.48s-1.23-12.75-9.87-12.51a15.32,15.32,0,0,0-12.4,6.26s-5.17,2.2-6.81,4.55,1.17,13.14,5.17,14.68,11.75-3.16,11.75-3.16l2.3-7.39Z"/><path class="cls-80" d="M1673.1,386c-.47,3.52,11.28,3.52,13.39,0s1.41-12.92,1.41-12.92l-10.81,4.23Z"/><path class="cls-81" d="M1716.56,407.78a19.7,19.7,0,0,0,15.09,13.94c12.63,2.82,13.26-4.22,13.26-4.22L1728.49,404Z"/><polygon class="cls-59" points="1731.65 394.43 1761.7 386.87 1751.18 397.49 1731.65 394.43"/><path class="cls-56" d="M1578.53,503.7c-.21,1-10.38,4-12.78.14s2.41-15.7,8.1-16a10.59,10.59,0,0,1,8.76,4s1.43-10.66,3.91-10-.47,10.63-.47,10.63,3.57-10.55,8.76-9.16,14.66,15.24,10.88,19.75-20.23-.47-20.23-.47-2.21,5.31-6,7.74-5.44-2.26-5.44-2.26Z"/><path class="cls-82" d="M1578.68,502.71s-2.77-1.92-2.78-4.77,4.55-5.2,4.55-5.2l2,.35s-1,6.74,5.39,8.65l-3.59,2Z"/><path class="cls-59" d="M1590.84,484.51s11,2.35,13.33,8.47a15.31,15.31,0,0,1-.25,11.31s2.82.08,2.85-4.58S1598.87,478.4,1590.84,484.51Z"/><path class="cls-56" d="M1503.7,303s-8.72-6.61-7-10.67,12.91-.46,12.91-.46,3.45-8.64,12.06-7.11L1515.7,303s7.3-5.65,9.29,0l3.31-6.39s6.8.36,9.83,8.4-6.12,11.59-6.12,11.59l-4.4-2.89,3.39,4.67s-4.76,8.45-19.5,7.11l-.19-3.19-9.57,4.54s-11.48-.76-12.82-10.24S1503.7,303,1503.7,303Z"/><path class="cls-83" d="M1527,303.25l2.19-4.21s5.83,2.66,5.85,6.69a6.48,6.48,0,0,1-3.17,5.69S1529.08,303.48,1527,303.25Z"/><path class="cls-84" d="M1514.45,304.56s-3.35-1.72-5.36-1.63-2.49,2.8-2.49,2.8l-5.36,2.47s.1,7.66,6.6,9.19a8.41,8.41,0,0,0,9.38-3.45l-3.45-5.17,3.45,2.65,1.44-5.14-2.87-.54-.38-1.75Z"/><polygon class="cls-59" points="1500.6 300.3 1507.08 303.6 1503.7 303.03 1500.6 300.3"/></g></g></g></svg>