<svg xmlns="http://www.w3.org/2000/svg" xmlns:xlink="http://www.w3.org/1999/xlink" viewBox="0 0 1920 1080.52"><defs><style>.cls-1{isolation:isolate;}.cls-2{fill:url(#Dégradé_sans_nom);}.cls-10,.cls-11,.cls-12,.cls-13,.cls-14,.cls-15,.cls-16,.cls-17,.cls-18,.cls-19,.cls-20,.cls-21,.cls-22,.cls-23,.cls-24,.cls-25,.cls-26,.cls-27,.cls-28,.cls-29,.cls-3,.cls-30,.cls-31,.cls-32,.cls-33,.cls-34,.cls-4,.cls-41,.cls-5,.cls-55,.cls-6,.cls-7,.cls-8,.cls-9{mix-blend-mode:screen;}.cls-3{fill:url(#_ÂÁ_Ï_ÌÌ_È_ËÂÌÚ_638);}.cls-4{fill:url(#_ÂÁ_Ï_ÌÌ_È_ËÂÌÚ_638-2);}.cls-5{fill:url(#_ÂÁ_Ï_ÌÌ_È_ËÂÌÚ_638-3);}.cls-6{fill:url(#_ÂÁ_Ï_ÌÌ_È_ËÂÌÚ_634);}.cls-7{fill:url(#_ÂÁ_Ï_ÌÌ_È_ËÂÌÚ_634-2);}.cls-8{fill:url(#_ÂÁ_Ï_ÌÌ_È_ËÂÌÚ_638-4);}.cls-9{fill:url(#_ÂÁ_Ï_ÌÌ_È_ËÂÌÚ_27);}.cls-10{fill:url(#_ÂÁ_Ï_ÌÌ_È_ËÂÌÚ_27-2);}.cls-11{fill:url(#_ÂÁ_Ï_ÌÌ_È_ËÂÌÚ_27-3);}.cls-12{fill:url(#_ÂÁ_Ï_ÌÌ_È_ËÂÌÚ_27-4);}.cls-13,.cls-20,.cls-31,.cls-42,.cls-43,.cls-72,.cls-73{opacity:0.2;}.cls-13{fill:url(#_ÂÁ_Ï_ÌÌ_È_ËÂÌÚ_18);}.cls-14,.cls-22,.cls-33,.cls-34,.cls-36,.cls-40,.cls-51,.cls-54{opacity:0.5;}.cls-14{fill:url(#_ÂÁ_Ï_ÌÌ_È_ËÂÌÚ_18-2);}.cls-15,.cls-20,.cls-21,.cls-22,.cls-26,.cls-31,.cls-32,.cls-33,.cls-57,.cls-58,.cls-59,.cls-60,.cls-61,.cls-62,.cls-63,.cls-64,.cls-65,.cls-66,.cls-67,.cls-68,.cls-69,.cls-70,.cls-71{fill-rule:evenodd;}.cls-15{fill:url(#_ÂÁ_Ï_ÌÌ_È_ËÂÌÚ_638-5);}.cls-16{fill:url(#_ÂÁ_Ï_ÌÌ_È_ËÂÌÚ_638-6);}.cls-17{fill:url(#_ÂÁ_Ï_ÌÌ_È_ËÂÌÚ_27-5);}.cls-18{fill:url(#_ÂÁ_Ï_ÌÌ_È_ËÂÌÚ_27-6);}.cls-19{fill:url(#_ÂÁ_Ï_ÌÌ_È_ËÂÌÚ_27-7);}.cls-20{fill:url(#_ÂÁ_Ï_ÌÌ_È_ËÂÌÚ_18-3);}.cls-21,.cls-32{opacity:0.41;}.cls-21{fill:url(#_ÂÁ_Ï_ÌÌ_È_ËÂÌÚ_18-4);}.cls-22{fill:url(#_ÂÁ_Ï_ÌÌ_È_ËÂÌÚ_18-5);}.cls-23{fill:url(#_ÂÁ_Ï_ÌÌ_È_ËÂÌÚ_638-7);}.cls-24{fill:url(#_ÂÁ_Ï_ÌÌ_È_ËÂÌÚ_27-8);}.cls-25{fill:url(#_ÂÁ_Ï_ÌÌ_È_ËÂÌÚ_634-3);}.cls-26{fill:url(#_ÂÁ_Ï_ÌÌ_È_ËÂÌÚ_634-4);}.cls-27{fill:url(#_ÂÁ_Ï_ÌÌ_È_ËÂÌÚ_638-8);}.cls-28{fill:url(#_ÂÁ_Ï_ÌÌ_È_ËÂÌÚ_27-9);}.cls-29{fill:url(#_ÂÁ_Ï_ÌÌ_È_ËÂÌÚ_27-10);}.cls-30{fill:url(#_ÂÁ_Ï_ÌÌ_È_ËÂÌÚ_27-11);}.cls-31{fill:url(#_ÂÁ_Ï_ÌÌ_È_ËÂÌÚ_18-6);}.cls-32{fill:url(#_ÂÁ_Ï_ÌÌ_È_ËÂÌÚ_18-7);}.cls-33{fill:url(#_ÂÁ_Ï_ÌÌ_È_ËÂÌÚ_18-8);}.cls-34{fill:url(#_ÂÁ_Ï_ÌÌ_È_ËÂÌÚ_18-9);}.cls-35{fill:url(#_ÂÁ_Ï_ÌÌ_È_ËÂÌÚ_648);}.cls-36,.cls-40,.cls-42,.cls-43,.cls-51,.cls-54,.cls-72,.cls-73,.cls-74,.cls-75,.cls-76{mix-blend-mode:multiply;}.cls-36{fill:url(#_ÂÁ_Ï_ÌÌ_È_ËÂÌÚ_574);}.cls-37{fill:url(#_ÂÁ_Ï_ÌÌ_È_ËÂÌÚ_589);}.cls-38{fill:#ffdec5;}.cls-39{fill:url(#_ÂÁ_Ï_ÌÌ_È_ËÂÌÚ_543);}.cls-40{fill:url(#_ÂÁ_Ï_ÌÌ_È_ËÂÌÚ_594);}.cls-41{fill:url(#_ÂÁ_Ï_ÌÌ_È_ËÂÌÚ_601);}.cls-42{fill:url(#_ÂÁ_Ï_ÌÌ_È_ËÂÌÚ_602);}.cls-43{fill:url(#_ÂÁ_Ï_ÌÌ_È_ËÂÌÚ_602-2);}.cls-44{fill:url(#_ÂÁ_Ï_ÌÌ_È_ËÂÌÚ_543-2);}.cls-45{fill:url(#_ÂÁ_Ï_ÌÌ_È_ËÂÌÚ_583);}.cls-46{fill:url(#_ÂÁ_Ï_ÌÌ_È_ËÂÌÚ_583-2);}.cls-47{fill:url(#_ÂÁ_Ï_ÌÌ_È_ËÂÌÚ_583-3);}.cls-48{fill:url(#_ÂÁ_Ï_ÌÌ_È_ËÂÌÚ_583-4);}.cls-49{fill:url(#_ÂÁ_Ï_ÌÌ_È_ËÂÌÚ_583-5);}.cls-50{fill:url(#_ÂÁ_Ï_ÌÌ_È_ËÂÌÚ_583-6);}.cls-51{fill:url(#_ÂÁ_Ï_ÌÌ_È_ËÂÌÚ_574-2);}.cls-52{fill:url(#_ÂÁ_Ï_ÌÌ_È_ËÂÌÚ_589-2);}.cls-53{fill:url(#_ÂÁ_Ï_ÌÌ_È_ËÂÌÚ_543-3);}.cls-54{fill:url(#_ÂÁ_Ï_ÌÌ_È_ËÂÌÚ_594-2);}.cls-55{fill:url(#_ÂÁ_Ï_ÌÌ_È_ËÂÌÚ_601-2);}.cls-56{fill:#ffe5cc;}.cls-57{fill:url(#_ÂÁ_Ï_ÌÌ_È_ËÂÌÚ_497);}.cls-58{fill:url(#_ÂÁ_Ï_ÌÌ_È_ËÂÌÚ_497-2);}.cls-59,.cls-78{fill:#dbb1c0;}.cls-60{fill:url(#_ÂÁ_Ï_ÌÌ_È_ËÂÌÚ_497-3);}.cls-61{fill:url(#_ÂÁ_Ï_ÌÌ_È_ËÂÌÚ_497-4);}.cls-62{fill:url(#_ÂÁ_Ï_ÌÌ_È_ËÂÌÚ_497-5);}.cls-63{fill:url(#_ÂÁ_Ï_ÌÌ_È_ËÂÌÚ_497-6);}.cls-64{fill:url(#_ÂÁ_Ï_ÌÌ_È_ËÂÌÚ_497-7);}.cls-65{fill:url(#_ÂÁ_Ï_ÌÌ_È_ËÂÌÚ_497-8);}.cls-66{fill:url(#_ÂÁ_Ï_ÌÌ_È_ËÂÌÚ_497-9);}.cls-67{fill:url(#_ÂÁ_Ï_ÌÌ_È_ËÂÌÚ_497-10);}.cls-68{fill:url(#_ÂÁ_Ï_ÌÌ_È_ËÂÌÚ_497-11);}.cls-69{fill:url(#_ÂÁ_Ï_ÌÌ_È_ËÂÌÚ_497-12);}.cls-70{fill:url(#_ÂÁ_Ï_ÌÌ_È_ËÂÌÚ_497-13);}.cls-71{fill:url(#_ÂÁ_Ï_ÌÌ_È_ËÂÌÚ_497-14);}.cls-72{fill:url(#_ÂÁ_Ï_ÌÌ_È_ËÂÌÚ_602-3);}.cls-73{fill:url(#_ÂÁ_Ï_ÌÌ_È_ËÂÌÚ_602-4);}.cls-74,.cls-75,.cls-76{opacity:0.3;}.cls-74{fill:url(#_ÂÁ_Ï_ÌÌ_È_ËÂÌÚ_656);}.cls-75{fill:url(#_ÂÁ_Ï_ÌÌ_È_ËÂÌÚ_656-2);}.cls-76{fill:url(#_ÂÁ_Ï_ÌÌ_È_ËÂÌÚ_656-3);}.cls-77{fill:url(#Dégradé_sans_nom_73);}.cls-79{fill:url(#Dégradé_sans_nom_75);}.cls-80{fill:url(#Dégradé_sans_nom_78);}.cls-81{fill:url(#Dégradé_sans_nom_79);}</style><linearGradient id="Dégradé_sans_nom" x1="960" y1="1080" x2="960" gradientTransform="matrix(1, 0, 0, -1, 0, 1080)" gradientUnits="userSpaceOnUse"><stop offset="0" stop-color="#0a0749"/><stop offset="0.48" stop-color="#120b51"/><stop offset="1" stop-color="#211260"/></linearGradient><radialGradient id="_ÂÁ_Ï_ÌÌ_È_ËÂÌÚ_638" cx="957.71" cy="633.24" r="7.17" gradientTransform="translate(159.63 99.49) scale(0.81 0.84)" gradientUnits="userSpaceOnUse"><stop offset="0.02" stop-color="#cb2a18"/><stop offset="0.35" stop-color="#c92a18"/><stop offset="0.49" stop-color="#c22817"/><stop offset="0.59" stop-color="#b52515"/><stop offset="0.68" stop-color="#a32213"/><stop offset="0.76" stop-color="#8c1d11"/><stop offset="0.83" stop-color="#6f170d"/><stop offset="0.89" stop-color="#4d1009"/><stop offset="0.95" stop-color="#270805"/><stop offset="1"/></radialGradient><radialGradient id="_ÂÁ_Ï_ÌÌ_È_ËÂÌÚ_638-2" cx="1009.38" cy="853.35" r="7.17" xlink:href="#_ÂÁ_Ï_ÌÌ_È_ËÂÌÚ_638"/><radialGradient id="_ÂÁ_Ï_ÌÌ_È_ËÂÌÚ_638-3" cx="1026.43" cy="698.46" r="2.59" xlink:href="#_ÂÁ_Ï_ÌÌ_È_ËÂÌÚ_638"/><radialGradient id="_ÂÁ_Ï_ÌÌ_È_ËÂÌÚ_634" cx="1063.43" cy="477.57" r="2.58" gradientTransform="translate(159.63 99.49) scale(0.81 0.84)" gradientUnits="userSpaceOnUse"><stop offset="0.88" stop-color="#ec814a"/><stop offset="0.92" stop-color="#ea8049"/><stop offset="0.93" stop-color="#e37c47"/><stop offset="0.95" stop-color="#d67543"/><stop offset="0.96" stop-color="#c46b3e"/><stop offset="0.97" stop-color="#ad5f36"/><stop offset="0.98" stop-color="#904f2d"/><stop offset="0.98" stop-color="#6e3c22"/><stop offset="0.99" stop-color="#462616"/><stop offset="1" stop-color="#1b0f08"/><stop offset="1"/></radialGradient><radialGradient id="_ÂÁ_Ï_ÌÌ_È_ËÂÌÚ_634-2" cx="1068.86" cy="539.48" r="2.58" xlink:href="#_ÂÁ_Ï_ÌÌ_È_ËÂÌÚ_634"/><radialGradient id="_ÂÁ_Ï_ÌÌ_È_ËÂÌÚ_638-4" cx="803.74" cy="633.24" r="2.58" xlink:href="#_ÂÁ_Ï_ÌÌ_È_ËÂÌÚ_638"/><radialGradient id="_ÂÁ_Ï_ÌÌ_È_ËÂÌÚ_27" cx="977.54" cy="493.58" r="3.31" gradientTransform="translate(159.63 99.49) scale(0.81 0.84)" gradientUnits="userSpaceOnUse"><stop offset="0.02" stop-color="#966a4a"/><stop offset="0.37" stop-color="#946949"/><stop offset="0.52" stop-color="#8d6345"/><stop offset="0.64" stop-color="#805b3f"/><stop offset="0.73" stop-color="#6e4e36"/><stop offset="0.82" stop-color="#573d2b"/><stop offset="0.89" stop-color="#3a291d"/><stop offset="0.96" stop-color="#19120c"/><stop offset="1"/></radialGradient><radialGradient id="_ÂÁ_Ï_ÌÌ_È_ËÂÌÚ_27-2" cx="928.02" cy="589.47" r="3.31" xlink:href="#_ÂÁ_Ï_ÌÌ_È_ËÂÌÚ_27"/><radialGradient id="_ÂÁ_Ï_ÌÌ_È_ËÂÌÚ_27-3" cx="971.6" cy="847.97" r="3.31" xlink:href="#_ÂÁ_Ï_ÌÌ_È_ËÂÌÚ_27"/><radialGradient id="_ÂÁ_Ï_ÌÌ_È_ËÂÌÚ_27-4" cx="1029.62" cy="393.99" r="3.31" xlink:href="#_ÂÁ_Ï_ÌÌ_È_ËÂÌÚ_27"/><radialGradient id="_ÂÁ_Ï_ÌÌ_È_ËÂÌÚ_18" cx="966.71" cy="469.93" r="23.65" gradientTransform="translate(159.63 99.49) scale(0.81 0.84)" gradientUnits="userSpaceOnUse"><stop offset="0.02" stop-color="#7c5542"/><stop offset="0.2" stop-color="#785240"/><stop offset="0.38" stop-color="#6c4a3a"/><stop offset="0.55" stop-color="#583c2f"/><stop offset="0.72" stop-color="#3c2920"/><stop offset="0.9" stop-color="#19110d"/><stop offset="1"/></radialGradient><radialGradient id="_ÂÁ_Ï_ÌÌ_È_ËÂÌÚ_18-2" cx="1001.23" cy="690.47" r="7.99" xlink:href="#_ÂÁ_Ï_ÌÌ_È_ËÂÌÚ_18"/><radialGradient id="_ÂÁ_Ï_ÌÌ_È_ËÂÌÚ_638-5" cx="957.45" cy="691.83" r="5.5" gradientTransform="matrix(-0.81, -0.02, 0.02, -0.84, 1694.76, 875.59)" xlink:href="#_ÂÁ_Ï_ÌÌ_È_ËÂÌÚ_638"/><radialGradient id="_ÂÁ_Ï_ÌÌ_È_ËÂÌÚ_638-6" cx="945.07" cy="760.51" r="1.98" gradientTransform="matrix(0, -0.81, 0.84, 0, 306.32, 986.77)" xlink:href="#_ÂÁ_Ï_ÌÌ_È_ËÂÌÚ_638"/><radialGradient id="_ÂÁ_Ï_ÌÌ_È_ËÂÌÚ_27-5" cx="947.61" cy="620.8" r="2.54" gradientTransform="matrix(0, -0.81, 0.84, 0, 419.18, 1105.71)" xlink:href="#_ÂÁ_Ï_ÌÌ_È_ËÂÌÚ_27"/><radialGradient id="_ÂÁ_Ï_ÌÌ_È_ËÂÌÚ_27-6" cx="945.07" cy="700.08" r="2.54" gradientTransform="matrix(0, -0.81, 0.84, 0, 355.98, 1037.31)" xlink:href="#_ÂÁ_Ï_ÌÌ_È_ËÂÌÚ_27"/><radialGradient id="_ÂÁ_Ï_ÌÌ_È_ËÂÌÚ_27-7" cx="987.58" cy="544.37" r="2.54" gradientTransform="matrix(0, -0.81, 0.84, 0, 449.71, 1201.26)" xlink:href="#_ÂÁ_Ï_ÌÌ_È_ËÂÌÚ_27"/><radialGradient id="_ÂÁ_Ï_ÌÌ_È_ËÂÌÚ_18-3" cx="939.3" cy="602.65" r="18.15" gradientTransform="matrix(-0.81, -0.02, 0.02, -0.84, 1694.76, 875.59)" xlink:href="#_ÂÁ_Ï_ÌÌ_È_ËÂÌÚ_18"/><radialGradient id="_ÂÁ_Ï_ÌÌ_È_ËÂÌÚ_18-4" cx="901.42" cy="772.17" r="11.66" gradientTransform="matrix(-0.81, -0.02, 0.02, -0.84, 1694.76, 875.59)" xlink:href="#_ÂÁ_Ï_ÌÌ_È_ËÂÌÚ_18"/><radialGradient id="_ÂÁ_Ï_ÌÌ_È_ËÂÌÚ_18-5" cx="915.74" cy="722.17" r="6.13" gradientTransform="matrix(-0.81, -0.02, 0.02, -0.84, 1694.76, 875.59)" xlink:href="#_ÂÁ_Ï_ÌÌ_È_ËÂÌÚ_18"/><radialGradient id="_ÂÁ_Ï_ÌÌ_È_ËÂÌÚ_638-7" cx="1366.72" cy="572.14" r="2.58" gradientTransform="matrix(-0.81, 0, 0, -0.84, 2129.54, 1098.41)" xlink:href="#_ÂÁ_Ï_ÌÌ_È_ËÂÌÚ_638"/><radialGradient id="_ÂÁ_Ï_ÌÌ_È_ËÂÌÚ_27-8" cx="1280.83" cy="588.14" r="3.31" gradientTransform="matrix(-0.81, 0, 0, -0.84, 2128.54, 1094.04)" xlink:href="#_ÂÁ_Ï_ÌÌ_È_ËÂÌÚ_27"/><radialGradient id="_ÂÁ_Ï_ÌÌ_È_ËÂÌÚ_634-3" cx="1332.9" cy="488.56" r="3.31" gradientTransform="matrix(-0.81, 0, 0, -0.84, 2133.93, 1096.55)" xlink:href="#_ÂÁ_Ï_ÌÌ_È_ËÂÌÚ_634"/><radialGradient id="_ÂÁ_Ï_ÌÌ_È_ËÂÌÚ_634-4" cx="404.08" cy="457.72" r="5.5" gradientTransform="matrix(0.81, -0.03, 0.04, 0.84, 575.81, 350.25)" xlink:href="#_ÂÁ_Ï_ÌÌ_È_ËÂÌÚ_634"/><radialGradient id="_ÂÁ_Ï_ÌÌ_È_ËÂÌÚ_638-8" cx="532.04" cy="524.57" r="1.98" gradientTransform="matrix(0.81, 0, 0, 0.84, 594.43, 331.23)" xlink:href="#_ÂÁ_Ï_ÌÌ_È_ËÂÌÚ_638"/><radialGradient id="_ÂÁ_Ï_ÌÌ_È_ËÂÌÚ_27-9" cx="629.34" cy="173.49" r="2.54" gradientTransform="matrix(0.81, 0, 0, 0.84, 581.62, 328.14)" xlink:href="#_ÂÁ_Ï_ÌÌ_È_ËÂÌÚ_27"/><radialGradient id="_ÂÁ_Ï_ÌÌ_È_ËÂÌÚ_27-10" cx="532.04" cy="464.14" r="2.54" gradientTransform="matrix(0.81, 0, 0, 0.84, 592.22, 331.29)" xlink:href="#_ÂÁ_Ï_ÌÌ_È_ËÂÌÚ_27"/><radialGradient id="_ÂÁ_Ï_ÌÌ_È_ËÂÌÚ_27-11" cx="645.4" cy="205.48" r="2.54" gradientTransform="matrix(0.81, 0, 0, 0.84, 582.77, 327.55)" xlink:href="#_ÂÁ_Ï_ÌÌ_È_ËÂÌÚ_27"/><radialGradient id="_ÂÁ_Ï_ÌÌ_È_ËÂÌÚ_18-6" cx="564.96" cy="480.93" r="18.15" gradientTransform="matrix(0.81, -0.03, 0.04, 0.84, 575.81, 350.25)" xlink:href="#_ÂÁ_Ï_ÌÌ_È_ËÂÌÚ_18"/><radialGradient id="_ÂÁ_Ï_ÌÌ_È_ËÂÌÚ_18-7" cx="488.39" cy="536.23" r="11.66" gradientTransform="matrix(0.81, -0.03, 0.04, 0.84, 575.81, 350.25)" xlink:href="#_ÂÁ_Ï_ÌÌ_È_ËÂÌÚ_18"/><radialGradient id="_ÂÁ_Ï_ÌÌ_È_ËÂÌÚ_18-8" cx="502.7" cy="486.22" r="6.13" gradientTransform="matrix(0.81, -0.03, 0.04, 0.84, 575.81, 350.25)" xlink:href="#_ÂÁ_Ï_ÌÌ_È_ËÂÌÚ_18"/><radialGradient id="_ÂÁ_Ï_ÌÌ_È_ËÂÌÚ_18-9" cx="940.33" cy="944.03" r="7.99" xlink:href="#_ÂÁ_Ï_ÌÌ_È_ËÂÌÚ_18"/><radialGradient id="_ÂÁ_Ï_ÌÌ_È_ËÂÌÚ_648" cx="1102.45" cy="843.27" r="121.87" gradientUnits="userSpaceOnUse"><stop offset="0" stop-color="#ff0c37"/><stop offset="1" stop-color="#de0038"/></radialGradient><radialGradient id="_ÂÁ_Ï_ÌÌ_È_ËÂÌÚ_574" cx="1102.39" cy="788.79" r="112.31" gradientUnits="userSpaceOnUse"><stop offset="0" stop-color="#d49fdb"/><stop offset="0.99" stop-color="#b060f4"/></radialGradient><radialGradient id="_ÂÁ_Ï_ÌÌ_È_ËÂÌÚ_589" cx="1102.64" cy="831.64" r="126.89" gradientTransform="translate(0 145.64) scale(1 0.76)" gradientUnits="userSpaceOnUse"><stop offset="0" stop-color="#ffdeb8"/><stop offset="1" stop-color="#ff998b"/></radialGradient><radialGradient id="_ÂÁ_Ï_ÌÌ_È_ËÂÌÚ_543" cx="1105.14" cy="818.01" r="114.89" gradientTransform="translate(0 145.64) scale(1 0.76)" gradientUnits="userSpaceOnUse"><stop offset="0" stop-color="#ffb0a9"/><stop offset="1" stop-color="#ff7a7e"/></radialGradient><linearGradient id="_ÂÁ_Ï_ÌÌ_È_ËÂÌÚ_594" x1="1104.54" y1="790.77" x2="1104.54" y2="776.17" gradientUnits="userSpaceOnUse"><stop offset="0" stop-color="#fff"/><stop offset="0.99" stop-color="#d360f4"/></linearGradient><linearGradient id="_ÂÁ_Ï_ÌÌ_È_ËÂÌÚ_601" x1="1102.76" y1="788.77" x2="1102.76" y2="766.09" gradientUnits="userSpaceOnUse"><stop offset="0"/><stop offset="0.99" stop-color="#efbe61"/></linearGradient><linearGradient id="_ÂÁ_Ï_ÌÌ_È_ËÂÌÚ_602" x1="1196.54" y1="780.64" x2="1196.54" y2="756.1" xlink:href="#_ÂÁ_Ï_ÌÌ_È_ËÂÌÚ_574"/><linearGradient id="_ÂÁ_Ï_ÌÌ_È_ËÂÌÚ_602-2" x1="992.3" y1="778.16" x2="992.3" y2="757.34" xlink:href="#_ÂÁ_Ï_ÌÌ_È_ËÂÌÚ_574"/><radialGradient id="_ÂÁ_Ï_ÌÌ_È_ËÂÌÚ_543-2" cx="969.65" cy="1012.48" r="209.6" gradientTransform="matrix(1, 0, 0, 1, 0, 0)" xlink:href="#_ÂÁ_Ï_ÌÌ_È_ËÂÌÚ_543"/><linearGradient id="_ÂÁ_Ï_ÌÌ_È_ËÂÌÚ_583" x1="540.83" y1="1080.3" x2="540.83" y2="956.35" gradientTransform="translate(401.41) scale(0.6 1)" gradientUnits="userSpaceOnUse"><stop offset="0" stop-color="#ef0437"/><stop offset="1" stop-color="#c40038"/></linearGradient><linearGradient id="_ÂÁ_Ï_ÌÌ_È_ËÂÌÚ_583-2" x1="795.47" y1="1080.52" x2="795.47" y2="959.56" gradientTransform="matrix(1, 0, 0, 1, 0, 0)" xlink:href="#_ÂÁ_Ï_ÌÌ_È_ËÂÌÚ_583"/><linearGradient id="_ÂÁ_Ï_ÌÌ_È_ËÂÌÚ_583-3" x1="975.42" y1="1080.31" x2="975.42" y2="964.74" gradientTransform="translate(-523.71) scale(1.48 1)" xlink:href="#_ÂÁ_Ï_ÌÌ_È_ËÂÌÚ_583"/><linearGradient id="_ÂÁ_Ï_ÌÌ_È_ËÂÌÚ_583-4" x1="1072.6" y1="1080.3" x2="1072.6" y2="962.9" gradientTransform="translate(-495.86) scale(1.44 1)" xlink:href="#_ÂÁ_Ï_ÌÌ_È_ËÂÌÚ_583"/><linearGradient id="_ÂÁ_Ï_ÌÌ_È_ËÂÌÚ_583-5" x1="1156.89" y1="1060.66" x2="1156.89" y2="943.26" gradientTransform="translate(0 -39.54) scale(1 1.06)" xlink:href="#_ÂÁ_Ï_ÌÌ_È_ËÂÌÚ_583"/><linearGradient id="_ÂÁ_Ï_ÌÌ_È_ËÂÌÚ_583-6" x1="1305.33" y1="1060.86" x2="1305.33" y2="934.77" gradientTransform="translate(773.07 -39.54) scale(0.35 1.06)" xlink:href="#_ÂÁ_Ï_ÌÌ_È_ËÂÌÚ_583"/><radialGradient id="_ÂÁ_Ï_ÌÌ_È_ËÂÌÚ_574-2" cx="969.56" cy="968.74" r="204.46" xlink:href="#_ÂÁ_Ï_ÌÌ_È_ËÂÌÚ_574"/><radialGradient id="_ÂÁ_Ï_ÌÌ_È_ËÂÌÚ_589-2" cx="970" cy="947.39" r="231" gradientTransform="matrix(1, 0, 0, 1, 0, 0)" xlink:href="#_ÂÁ_Ï_ÌÌ_È_ËÂÌÚ_589"/><radialGradient id="_ÂÁ_Ï_ÌÌ_È_ËÂÌÚ_543-3" cx="974.55" cy="922.58" r="209.15" gradientTransform="matrix(1, 0, 0, 1, 0, 0)" xlink:href="#_ÂÁ_Ï_ÌÌ_È_ËÂÌÚ_543"/><linearGradient id="_ÂÁ_Ï_ÌÌ_È_ËÂÌÚ_594-2" x1="973.47" y1="976.92" x2="973.47" y2="941.98" xlink:href="#_ÂÁ_Ï_ÌÌ_È_ËÂÌÚ_594"/><linearGradient id="_ÂÁ_Ï_ÌÌ_È_ËÂÌÚ_601-2" x1="970.22" y1="972.12" x2="970.22" y2="917.86" xlink:href="#_ÂÁ_Ï_ÌÌ_È_ËÂÌÚ_601"/><radialGradient id="_ÂÁ_Ï_ÌÌ_È_ËÂÌÚ_497" cx="1037.35" cy="870.98" r="14.1" gradientUnits="userSpaceOnUse"><stop offset="0" stop-color="#ffc73e"/><stop offset="1" stop-color="#ff7506"/></radialGradient><radialGradient id="_ÂÁ_Ï_ÌÌ_È_ËÂÌÚ_497-2" cx="1037.35" cy="870.98" r="14.1" xlink:href="#_ÂÁ_Ï_ÌÌ_È_ËÂÌÚ_497"/><radialGradient id="_ÂÁ_Ï_ÌÌ_È_ËÂÌÚ_497-3" cx="1013.41" cy="955.84" r="26.36" xlink:href="#_ÂÁ_Ï_ÌÌ_È_ËÂÌÚ_497"/><radialGradient id="_ÂÁ_Ï_ÌÌ_È_ËÂÌÚ_497-4" cx="1013.4" cy="964.03" r="27.84" xlink:href="#_ÂÁ_Ï_ÌÌ_È_ËÂÌÚ_497"/><radialGradient id="_ÂÁ_Ï_ÌÌ_È_ËÂÌÚ_497-5" cx="867.41" cy="953.17" r="4.01" xlink:href="#_ÂÁ_Ï_ÌÌ_È_ËÂÌÚ_497"/><radialGradient id="_ÂÁ_Ï_ÌÌ_È_ËÂÌÚ_497-6" cx="617.93" cy="1203.05" r="13.27" gradientTransform="matrix(0.94, -0.35, 0.35, 0.94, -34.1, -303.38)" xlink:href="#_ÂÁ_Ï_ÌÌ_È_ËÂÌÚ_497"/><radialGradient id="_ÂÁ_Ï_ÌÌ_È_ËÂÌÚ_497-7" cx="861.82" cy="733.64" r="53.64" xlink:href="#_ÂÁ_Ï_ÌÌ_È_ËÂÌÚ_497"/><radialGradient id="_ÂÁ_Ï_ÌÌ_È_ËÂÌÚ_497-8" cx="861.82" cy="733.64" r="53.64" xlink:href="#_ÂÁ_Ï_ÌÌ_È_ËÂÌÚ_497"/><radialGradient id="_ÂÁ_Ï_ÌÌ_È_ËÂÌÚ_497-9" cx="902.32" cy="837.57" r="28.85" xlink:href="#_ÂÁ_Ï_ÌÌ_È_ËÂÌÚ_497"/><radialGradient id="_ÂÁ_Ï_ÌÌ_È_ËÂÌÚ_497-10" cx="902.32" cy="837.57" r="28.85" xlink:href="#_ÂÁ_Ï_ÌÌ_È_ËÂÌÚ_497"/><radialGradient id="_ÂÁ_Ï_ÌÌ_È_ËÂÌÚ_497-11" cx="675.15" cy="895.34" r="28.85" gradientTransform="matrix(0.62, -0.78, 0.78, 0.62, -56.93, 656.5)" xlink:href="#_ÂÁ_Ï_ÌÌ_È_ËÂÌÚ_497"/><radialGradient id="_ÂÁ_Ï_ÌÌ_È_ËÂÌÚ_497-12" cx="675.15" cy="895.34" r="28.85" gradientTransform="matrix(0.62, -0.78, 0.78, 0.62, -56.93, 656.5)" xlink:href="#_ÂÁ_Ï_ÌÌ_È_ËÂÌÚ_497"/><radialGradient id="_ÂÁ_Ï_ÌÌ_È_ËÂÌÚ_497-13" cx="556.67" cy="561.01" r="28.85" gradientTransform="translate(213.67 -349.84) rotate(7.34)" xlink:href="#_ÂÁ_Ï_ÌÌ_È_ËÂÌÚ_497"/><radialGradient id="_ÂÁ_Ï_ÌÌ_È_ËÂÌÚ_497-14" cx="556.67" cy="561.01" r="28.85" gradientTransform="translate(213.67 -349.84) rotate(7.34)" xlink:href="#_ÂÁ_Ï_ÌÌ_È_ËÂÌÚ_497"/><linearGradient id="_ÂÁ_Ï_ÌÌ_È_ËÂÌÚ_602-3" x1="1140.94" y1="952.67" x2="1140.94" y2="893.95" xlink:href="#_ÂÁ_Ï_ÌÌ_È_ËÂÌÚ_574"/><linearGradient id="_ÂÁ_Ï_ÌÌ_È_ËÂÌÚ_602-4" x1="769.13" y1="946.73" x2="769.13" y2="896.93" xlink:href="#_ÂÁ_Ï_ÌÌ_È_ËÂÌÚ_574"/><linearGradient id="_ÂÁ_Ï_ÌÌ_È_ËÂÌÚ_656" x1="1170.36" y1="644.61" x2="1195.35" y2="644.61" gradientUnits="userSpaceOnUse"><stop offset="0" stop-color="#f66086"/><stop offset="0.99" stop-color="#db2c7e"/></linearGradient><linearGradient id="_ÂÁ_Ï_ÌÌ_È_ËÂÌÚ_656-2" x1="1155.05" y1="658.68" x2="1182.37" y2="658.68" xlink:href="#_ÂÁ_Ï_ÌÌ_È_ËÂÌÚ_656"/><linearGradient id="_ÂÁ_Ï_ÌÌ_È_ËÂÌÚ_656-3" x1="1146.36" y1="673.89" x2="1172.75" y2="673.89" xlink:href="#_ÂÁ_Ï_ÌÌ_È_ËÂÌÚ_656"/><radialGradient id="Dégradé_sans_nom_73" cx="1132.57" cy="869.67" r="6.02" gradientTransform="matrix(1, 0, 0, -1, 0, 1080)" gradientUnits="userSpaceOnUse"><stop offset="0" stop-color="#ffc73e"/><stop offset="1" stop-color="#ff7506"/></radialGradient><radialGradient id="Dégradé_sans_nom_75" cx="1182.97" cy="686.47" r="29.27" xlink:href="#Dégradé_sans_nom_73"/><radialGradient id="Dégradé_sans_nom_78" cx="1495.1" cy="305.66" r="5.67" gradientTransform="matrix(0.17, -0.98, -0.98, -0.17, 1080.41, 2012.35)" xlink:href="#Dégradé_sans_nom_73"/><radialGradient id="Dégradé_sans_nom_79" cx="978.31" cy="773.81" r="22.91" xlink:href="#Dégradé_sans_nom_73"/></defs><title>popcorn-mobile</title><g class="cls-1"><g id="Calque_1" data-name="Calque 1"><g id="Calque_2" data-name="Calque 2"><rect class="cls-2" width="1920" height="1080"/></g><g id="Calque_2-2" data-name="Calque 2"><ellipse class="cls-3" cx="932.98" cy="630.27" rx="5.79" ry="6.01"/><ellipse class="cls-4" cx="974.7" cy="814.77" rx="5.79" ry="6.01"/><ellipse class="cls-5" cx="988.47" cy="684.94" rx="2.09" ry="2.17"/><ellipse class="cls-6" cx="1018.35" cy="499.79" rx="2.09" ry="2.17"/><ellipse class="cls-7" cx="1022.73" cy="551.68" rx="2.09" ry="2.17"/><ellipse class="cls-8" cx="808.65" cy="630.27" rx="2.09" ry="2.17"/><ellipse class="cls-9" cx="948.99" cy="513.21" rx="2.67" ry="2.77"/><ellipse class="cls-10" cx="909" cy="593.59" rx="2.67" ry="2.77"/><ellipse class="cls-11" cx="944.2" cy="810.26" rx="2.67" ry="2.77"/><ellipse class="cls-12" cx="991.04" cy="429.73" rx="2.67" ry="2.77"/><ellipse class="cls-13" cx="940.24" cy="493.39" rx="19.1" ry="19.82"/><ellipse class="cls-14" cx="968.12" cy="678.25" rx="6.45" ry="6.7"/><path class="cls-15" d="M928.27,279.88a4.45,4.45,0,1,1,4.35,4.7A4.52,4.52,0,0,1,928.27,279.88Z"/><ellipse class="cls-16" cx="943.8" cy="222.61" rx="1.66" ry="1.6" transform="matrix(0.02, -1, 1, 0.02, 701.93, 1161.66)"/><ellipse class="cls-17" cx="939.53" cy="339.66" rx="2.13" ry="2.05" transform="translate(580.69 1272.04) rotate(-88.83)"/><ellipse class="cls-18" cx="942.84" cy="273.25" rx="2.13" ry="2.05" transform="translate(650.4 1210.32) rotate(-88.83)"/><ellipse class="cls-19" cx="906.04" cy="403.06" rx="2.13" ry="2.05" transform="translate(484.57 1300.68) rotate(-88.83)"/><path class="cls-20" d="M931.3,354.71c.16-8.4,6.85-15.08,14.94-14.91s14.53,7.11,14.37,15.51-6.85,15.08-14.94,14.91S931.14,363.11,931.3,354.71Z"/><path class="cls-21" d="M969.81,213.36a9.43,9.43,0,1,1,9.23,10A9.59,9.59,0,0,1,969.81,213.36Z"/><path class="cls-22" d="M961.93,255.13a5,5,0,1,1,4.85,5.24A5,5,0,0,1,961.93,255.13Z"/><ellipse class="cls-23" cx="1025.85" cy="618.93" rx="2.09" ry="2.17" transform="translate(-37.27 66.47) rotate(-3.65)"/><ellipse class="cls-24" cx="1094.22" cy="601.13" rx="2.67" ry="2.77" transform="translate(-36.01 70.8) rotate(-3.65)"/><ellipse class="cls-25" cx="1057.56" cy="687.11" rx="2.67" ry="2.77" transform="translate(-41.55 68.64) rotate(-3.65)"/><path class="cls-26" d="M923.38,719.25a4.45,4.45,0,1,1-4.64-4.41A4.52,4.52,0,0,1,923.38,719.25Z"/><ellipse class="cls-27" cx="1024.68" cy="770.95" rx="1.6" ry="1.66" transform="translate(-32.39 45.04) rotate(-2.48)"/><ellipse class="cls-28" cx="1090.05" cy="473.56" rx="2.05" ry="2.13" transform="translate(-19.45 47.55) rotate(-2.48)"/><ellipse class="cls-29" cx="1022.42" cy="720.35" rx="2.05" ry="2.13" transform="translate(-30.17 44.85) rotate(-2.48)"/><ellipse class="cls-30" cx="1104.21" cy="499.79" rx="2.05" ry="2.13" transform="translate(-20.57 48.18) rotate(-2.48)"/><path class="cls-31" d="M1064.26,732.63c.38,8.39-5.88,15.48-14,15.83s-14.95-6.17-15.32-14.57,5.88-15.48,14-15.83S1063.88,724.23,1064.26,732.63Z"/><path class="cls-32" d="M999.31,781.84a9.43,9.43,0,1,1-9.85-9.36A9.59,9.59,0,0,1,999.31,781.84Z"/><path class="cls-33" d="M1004.52,739.65a5,5,0,1,1-5.18-4.92A5,5,0,0,1,1004.52,739.65Z"/><ellipse class="cls-34" cx="918.94" cy="890.77" rx="6.45" ry="6.7"/><polygon class="cls-35" points="943.94 779.45 956.45 910.96 1243.57 910.96 1260.95 775.57 943.94 779.45"/><path class="cls-36" d="M944.45,783.75s172.21,27.06,313,13.16l3.34-20.21L944,780.12Z"/><path class="cls-37" d="M1280.18,776.15H1280c-3.82.66-86.29,14.6-178.21,14.6-85,0-156.18-7.66-172.79-13.45l-.09,0h0a8.3,8.3,0,0,1-3.29-1.74c-5-5.85,2.51-9.46,2.51-9.46,231.68,14.81,349,1.71,349,1.71C1284.27,769.38,1280.18,776.15,1280.18,776.15Z"/><path class="cls-38" d="M928.14,766.09s183.21-36.47,349,1.71C1277.19,767.8,1111.35,810.56,928.14,766.09Z"/><path class="cls-39" d="M1266.33,768.34s-48,10.13-116.08,13.86q-6.6.36-13.44.64c-5,.2-10.14.37-15.33.49q-6.35.14-12.85.2-2.65,0-5.34,0h-3.39c-6.68,0-13.49-.1-20.37-.29l-.47,0-.91,0c-9.54-.27-19.25-.71-29.07-1.37l-5.62-.39c-4.52-.34-9.07-.72-13.62-1.15a586.27,586.27,0,0,1-85.89-14.22S1093.67,734.21,1266.33,768.34Z"/><path class="cls-40" d="M1280,776.17c-3.82.66-86.29,14.6-178.21,14.6-85,0-156.18-7.66-172.79-13.45,2.71.7,48.84,12.1,173.63,11.55C1197.51,788.45,1276.33,776.73,1280,776.17Z"/><path class="cls-41" d="M928.14,766.09s-6.93,3.17-2.51,9.46c0,0,78.26,13.21,188.43,13.21s166.85-14.23,166.85-14.23,2.34-6.2-3.72-6.74c0,0-65.82,17.11-165.84,17.11S928.14,766.09,928.14,766.09Z"/><path class="cls-42" d="M1173.48,780.64,1180,756.1l39.6,4.46-2.95,15.65S1178.31,780.27,1173.48,780.64Z"/><path class="cls-43" d="M978.28,773.37,974.59,761l30.27-3.65,5.14,20.82S988.1,775.22,978.28,773.37Z"/><polygon class="cls-44" points="681.1 951.72 696.08 1080.3 1235.8 1080.3 1258.21 944.67 681.1 951.72"/><polygon class="cls-45" points="709.63 956.35 715.11 1080.3 741.22 1080.3 734.13 961.84 709.63 956.35"/><polygon class="cls-46" points="770.96 959.56 777.8 1080.52 819.97 1080.3 819.97 961.39 770.96 959.56"/><polygon class="cls-47" points="880.85 964.75 891.15 1080.3 954.49 1080.31 957.42 966.21 880.85 964.75"/><polygon class="cls-48" points="1011.51 965.49 1014.29 1080.3 1068.08 1080.3 1078.34 962.9 1011.51 965.49"/><polygon class="cls-49" points="1136.4 959.08 1130.86 1080.3 1168.3 1080.3 1182.92 956.35 1136.4 959.08"/><polygon class="cls-50" points="1223.09 950.12 1211.79 1080.52 1224.76 1080.52 1239.21 947.39 1223.09 950.12"/><path class="cls-51" d="M682,959.56s313.51,49.26,569.77,24l6.08-36.79-576.62,6.21Z"/><path class="cls-52" d="M1293.21,941.92a.09.09,0,0,0-.06,0,.54.54,0,0,0-.19,0c-7,1.58-157.08,34.94-324.42,34.94-154.81,0-284.33-18.32-314.56-32.17l-.17-.06a.09.09,0,0,0-.06,0c-3.1-1.44-5.13-2.83-6-4.16-9.09-14,4.57-22.64,4.57-22.64,421.77,35.44,635.43,4.1,635.43,4.1C1300.66,925.74,1293.21,941.92,1293.21,941.92Z"/><path class="cls-38" d="M652.34,917.86s333.53-87.26,635.43,4.1C1287.77,922,985.86,1024.25,652.34,917.86Z"/><path class="cls-53" d="M1268,923.25s-87.42,24.25-211.31,33.17q-12,.87-24.47,1.52c-9.14.47-18.45.89-27.9,1.16q-11.55.33-23.39.47-4.82.08-9.73.08H965c-12.16,0-24.55-.25-37.08-.69-.28,0-.58,0-.86-.06-.55,0-1.11,0-1.66-.06-17.37-.64-35.05-1.69-52.93-3.27-3.41-.3-6.82-.61-10.22-.94-8.23-.8-16.51-1.72-24.8-2.74-51.68-6.37-104.52-17.15-156.36-34C681.1,917.87,953.68,841.59,1268,923.25Z"/><path class="cls-54" d="M1293,942c-7,1.58-157.08,34.94-324.42,34.94-154.81,0-284.33-18.32-314.56-32.17,4.93,1.66,88.92,29,316.08,27.63C1142.72,971.35,1286.2,943.31,1293,942Z"/><path class="cls-55" d="M652.34,917.86s-12.61,7.6-4.57,22.64c0,0,142.48,31.61,343,31.61s303.74-34,303.74-34,4.27-14.83-6.77-16.12c0,0-119.83,40.94-301.91,40.94S652.34,917.86,652.34,917.86Z"/><path class="cls-56" d="M1017.65,896.92s8.44,14.79,34.79,5.38,21-32.72,21-32.72h-21l7.08-12.52s-18.38-29.16-38.1-20.65-9.63,27.07-9.63,27.07-9.14-4.26-15.66.69,1.82,21.35,9.08,20.55c0,0-12.19,7.26-11.43,11.3S1010.56,916.19,1017.65,896.92Z"/><path class="cls-57" d="M1013,879.92c-4.83-4.18,2.8-16.41,2.8-16.41s14.09-8.37,24.25-4.48,8.46,11.48,8.46,11.48-3.63-.13-14.71,2.86,9.83,3.59,9.83,3.59S1025.4,890.64,1013,879.92Z"/><path class="cls-58" d="M1005.59,886.07s-9.33,4.33-8.58,7.92,13.82,4.93,14.38,1.49S1005.59,886.07,1005.59,886.07Z"/><path class="cls-59" d="M1017.65,896.92l2-7.56s2.86,13.42,12,15.71,20.75-2.78,20.75-2.78S1031.26,912.54,1017.65,896.92Z"/><path class="cls-59" d="M1052.43,869.57l-3.93,3.35s-1.64-13.52,11-15.87Z"/><path class="cls-59" d="M1011.78,863.48l4,0a15.11,15.11,0,0,1-6.58-9.88S1009.51,860.22,1011.78,863.48Z"/><path class="cls-56" d="M1056.68,956.41q-12,.87-24.47,1.52c-9.14.47-18.45.89-27.9,1.16q-11.55.33-23.39.47-4.82.08-9.73.08H965c2.58-8,12.41-22.39,19.59-19.87,9,3.13,17.32,12.16,17.32,12.16s-5.51-13.22-1-15.46,7.62,13,7.62,13l8.65-28.29s36.6-2.6,45.55,11.28C1067.29,939.57,1062.47,948.93,1056.68,956.41Z"/><path class="cls-60" d="M1032.21,957.94c-9.14.47-18.45.89-27.9,1.16a2.71,2.71,0,0,1,.39-1.33c1.58-2.24,6.51-4.32,6.51-4.32a14.57,14.57,0,0,1,11.83-6C1029.5,947.3,1031.6,954.72,1032.21,957.94Z"/><path class="cls-61" d="M983,958a4.09,4.09,0,0,1-2.05,1.58q-4.82.08-9.73.08a1.72,1.72,0,0,1-1-1.66l3.8-8.29,10.31-4S985,954.64,983,958Z"/><path class="cls-56" d="M927.08,958.91c-.55,0-1.11,0-1.66-.06-17.37-.64-35.05-1.69-52.93-3.27-3.41-.3-6.82-.61-10.22-.94-8.23-.8-16.51-1.72-24.8-2.74,3.82-6.79,9.25-12.25,15.07-12.55A24.73,24.73,0,0,1,873,948.77s3.35-25,9.14-23.47c5.43,1.41-.3,22.14-1,24.66.64-1.77,4.79-13,11.14-18.45a10.8,10.8,0,0,1,7.43-3h0a7.54,7.54,0,0,1,1.86.28c5.35,1.41,12.64,8.51,18.34,16.88a65.64,65.64,0,0,1,3.57,5.74s0,0,0,.06A58.88,58.88,0,0,1,927.08,958.91Z"/><path class="cls-62" d="M872.55,951.56a19.11,19.11,0,0,0-.06,4c-3.41-.3-6.82-.61-10.22-.94a33.72,33.72,0,0,1,5.71-3.88Z"/><path class="cls-59" d="M927.94,959c-.28,0-.58,0-.86-.06-.55,0-1.11,0-1.66-.06a34.48,34.48,0,0,0-1.86-7.45s0,0,0-.06a17.79,17.79,0,0,0-3.57-5.74c-8.87-10.09-27.65-14.1-27.65-14.1a14.16,14.16,0,0,1,7.43-3h0C912.42,927.37,923.81,946.36,927.94,959Z"/><path class="cls-56" d="M952.16,604.77c-2.29.8-20.43-16.14-15.54-25.57s34.51-13.87,41.88-2.75a24.81,24.81,0,0,1,2.34,22.45s23.2-9.84,24.86-4.09-22,11.74-22,11.74,25.5-5.4,28.92,6.72-13.21,47.73-26.81,45.5-23.19-41.32-23.19-41.32-13.33,1.89-22.81-2.92-1.94-13.67-1.94-13.67Z"/><path class="cls-63" d="M954.34,603.89s.55-7.87,6.29-11.3,15.92,3,15.92,3l1.64,4.36s-14.78,6-11,21.18L959,616.2Z"/><path class="cls-59" d="M1005.52,606.68s8.42,25-1.16,37a35.86,35.86,0,0,1-23.09,13s3.2,5.77,12.63.27S1027.4,615.58,1005.52,606.68Z"/><path class="cls-56" d="M838.22,726.24s-20.42-15.47-16.48-25S852,700.16,852,700.16,860,679.91,880.2,683.5l-13.9,42.74s17.09-13.22,21.77,0l7.74-15s15.93.85,23,19.67-14.34,27.14-14.34,27.14l-10.31-6.77,7.94,10.93S891,782,856.44,778.91l-.45-7.48-22.41,10.64s-26.89-1.77-30-24S838.22,726.24,838.22,726.24Z"/><path class="cls-64" d="M892.86,726.76,898,716.9s13.66,6.23,13.7,15.67a15.18,15.18,0,0,1-7.43,13.32S897.64,727.29,892.86,726.76Z"/><path class="cls-65" d="M863.39,729.83s-7.84-4-12.55-3.81-5.83,6.55-5.83,6.55l-12.55,5.77s.22,17.93,15.46,21.51,22-8.07,22-8.07l-8.07-12.1,8.07,6.2,3.36-12-6.72-1.27-.9-4.09Z"/><polygon class="cls-59" points="830.95 719.86 846.14 727.59 838.22 726.24 830.95 719.86"/><path class="cls-56" d="M921.15,836.07l-7.47-21.81s-15.17-7.77-26.71,6.57,5.79,25.7,5.79,25.7l-7.88,6.21s12.77,8.06,17.2,6.9,19.07-10.39,19.07-10.39,16.06,3.32,16.85,0S950.13,808.88,921.15,836.07Z"/><path class="cls-66" d="M922.49,841.9s7.66-10.09,13-9.19,0,12.77,0,12.77Z"/><path class="cls-67" d="M913.53,834.06s-5.38-6.05-13.22-3.59-4.71,13-4.71,13l-.62,5.6,7.57,3.67s10.53-8,11-11.43A34.28,34.28,0,0,0,913.53,834.06Z"/><path class="cls-59" d="M921.15,849.26,919.06,844l11.12,6.59A12,12,0,0,1,921.15,849.26Z"/><path class="cls-56" d="M1074.55,672.71l-21.7-7.79s-15.54,7-11.55,25S1065,701.42,1065,701.42l-.07,10s14.27-4.94,16.13-9.12,3.8-21.38,3.8-21.38,12.63-10.47,10.52-13.16S1071.41,633.09,1074.55,672.71Z"/><path class="cls-68" d="M1079.94,675.3s-3.09-12.28.94-15.89,10,8,10,8Z"/><path class="cls-69" d="M1068.22,677.4s-8.09.42-11.06,8.09,7.21,11.79,7.21,11.79l4,4,7.59-3.62s.34-13.21-2.07-15.72A34.28,34.28,0,0,0,1068.22,677.4Z"/><path class="cls-59" d="M1084.84,680.94l-5.42-1.65,12.09-4.57A12,12,0,0,1,1084.84,680.94Z"/><path class="cls-56" d="M713,278.58,708.37,256s-14.05-9.64-27.33,3.11,2.46,26.23,2.46,26.23l-8.61,5.15s11.63,9.63,16.17,9,20.24-7.87,20.24-7.87S726.82,297,728,293.81,745.21,255.31,713,278.58Z"/><path class="cls-70" d="M713.58,284.53s8.88-9,14.07-7.45S726,289.75,726,289.75Z"/><path class="cls-71" d="M705.69,275.61s-4.56-6.69-12.66-5.24-6.33,12.29-6.33,12.29l-1.33,5.48,7,4.61s11.47-6.58,12.35-9.94A34.3,34.3,0,0,0,705.69,275.61Z"/><path class="cls-59" d="M711.31,291.65l-1.4-5.49,10.19,8A12,12,0,0,1,711.31,291.65Z"/><path class="cls-72" d="M1099,952.67,1110.82,894l72.1,10.66-5.37,37.45S1107.76,951.78,1099,952.67Z"/><path class="cls-73" d="M743.61,935.29l-6.71-29.63L792,896.93l9.36,49.8S761.48,939.7,743.61,935.29Z"/><path class="cls-38" d="M1108.64,783.52,1150,674.86l-3.67-12.56H1155V644.37h15.31V628.24l8.17,5.56L1278.8,560s14.74,6.6,14.74,32.18l-100.12,54.54,1.92,14.23-11.53-3.69-1.44,12.28L1168,673l4.8,12-7.68.48L1131.74,783Z"/><polygon class="cls-74" points="1170.36 628.24 1195.35 660.98 1183.81 657.29 1170.36 644.37 1170.36 628.24"/><polygon class="cls-75" points="1182.37 669.56 1155.05 644.37 1155.05 662.3 1167.95 672.99 1182.37 669.56"/><polygon class="cls-76" points="1172.75 685 1146.36 662.3 1150.03 674.86 1165.07 685.49 1172.75 685"/></g><g id="Calque_1-2" data-name="Calque 1"><path class="cls-56" d="M1124.16,221.4s3.6,6.32,14.85,2.3,9-14,9-14h-9l3-5.35s-7.85-12.45-16.27-8.82-4.11,11.56-4.11,11.56-3.9-1.82-6.69.3.78,9.12,3.88,8.77c0,0-5.21,3.1-4.88,4.82S1121.13,229.63,1124.16,221.4Z"/><path class="cls-77" d="M1122.17,214.14c-2.06-1.79,1.19-7,1.19-7s6-3.57,10.35-1.91,3.61,4.9,3.61,4.9-1.55-.06-6.28,1.22,4.2,1.53,4.2,1.53S1127.47,218.72,1122.17,214.14Z"/><path class="cls-77" d="M1119,216.77s-4,1.85-3.67,3.38,5.9,2.11,6.14.64S1119,216.77,1119,216.77Z"/><path class="cls-78" d="M1124.16,221.4l.87-3.23s1.22,5.73,5.12,6.71,8.86-1.19,8.86-1.19S1130,228.07,1124.16,221.4Z"/><path class="cls-78" d="M1139,209.73l-1.68,1.43s-.7-5.77,4.7-6.78Z"/><path class="cls-78" d="M1121.65,207.12h1.71a6.45,6.45,0,0,1-2.81-4.22A10,10,0,0,0,1121.65,207.12Z"/><path class="cls-56" d="M1170.91,379.68s-8.77-9.47-18.17-12.77-23.19,21.1-21,25.5,29.14,2.81,29.14,2.81,3.13,24.75,10,31.34,40.92,15.33,47.4,0-22.13-32.13-22.13-32.13l19.53,3.06s28.28-23.7,18.91-38.26-47.76-11.83-47.76-11.83l-9,29.6s-3.29-15.94-8-13.59S1170.91,379.68,1170.91,379.68Z"/><path class="cls-79" d="M1202.89,387.48s-1.23-12.75-9.87-12.51a15.32,15.32,0,0,0-12.4,6.26s-5.17,2.2-6.81,4.55,1.17,13.14,5.17,14.68,11.75-3.16,11.75-3.16l2.3-7.39Z"/><path class="cls-79" d="M1137.63,386c-.47,3.52,11.28,3.52,13.39,0s1.41-12.92,1.41-12.92l-10.81,4.23Z"/><path class="cls-79" d="M1181.09,407.78a19.7,19.7,0,0,0,15.09,13.94c12.63,2.82,13.26-4.22,13.26-4.22L1193,404Z"/><polygon class="cls-78" points="1196.17 394.43 1226.22 386.87 1215.7 397.49 1196.17 394.43"/><path class="cls-56" d="M1043.06,503.7c-.21,1-10.38,4-12.78.14s2.41-15.7,8.1-16a10.59,10.59,0,0,1,8.76,4s1.43-10.66,3.91-10-.47,10.63-.47,10.63,3.57-10.55,8.76-9.16,14.66,15.24,10.88,19.75-20.23-.47-20.23-.47-2.21,5.31-6,7.74-5.44-2.26-5.44-2.26Z"/><path class="cls-80" d="M1043.21,502.71s-2.77-1.92-2.78-4.77,4.55-5.2,4.55-5.2l2,.35s-1,6.74,5.39,8.65l-3.59,2Z"/><path class="cls-78" d="M1055.37,484.51s11,2.35,13.33,8.47a15.31,15.31,0,0,1-.25,11.31s2.82.08,2.85-4.58S1063.4,478.4,1055.37,484.51Z"/><path class="cls-56" d="M968.23,303s-8.72-6.61-7-10.67,12.91-.46,12.91-.46,3.45-8.64,12.06-7.11l-6,18.24s7.3-5.65,9.29,0l3.31-6.39s6.8.36,9.83,8.4-6.12,11.59-6.12,11.59l-4.4-2.89,3.39,4.67s-4.76,8.45-19.5,7.11l-.19-3.19-9.57,4.54s-11.48-.76-12.82-10.24S968.23,303,968.23,303Z"/><path class="cls-81" d="M991.53,303.25l2.19-4.21s5.83,2.66,5.85,6.69a6.48,6.48,0,0,1-3.17,5.69S993.61,303.48,991.53,303.25Z"/><path class="cls-81" d="M979,304.56s-3.35-1.72-5.36-1.63-2.49,2.8-2.49,2.8l-5.36,2.47s.1,7.66,6.6,9.19a8.41,8.41,0,0,0,9.38-3.45l-3.45-5.17,3.45,2.65,1.44-5.14-2.87-.54-.38-1.75Z"/><polygon class="cls-78" points="965.13 300.3 971.61 303.6 968.23 303.03 965.13 300.3"/></g></g></g></svg>